<svg xmlns="http://www.w3.org/2000/svg" xmlns:xlink="http://www.w3.org/1999/xlink" width="205.43" height="33.478" viewBox="0 0 205.43 33.478">
  <defs>
    <clipPath id="clip-path">
      <rect id="長方形_22" data-name="長方形 22" width="205.43" height="33.478" fill="#fff"/>
    </clipPath>
  </defs>
  <g id="グループ_31" data-name="グループ 31" transform="translate(0 0)">
    <path id="パス_131" data-name="パス 131" d="M48.188,3.511V7.693H41.512v20.06H36.594V7.693H29.918V3.511Z" transform="translate(9.445 1.108)" fill="#fff"/>
    <path id="パス_132" data-name="パス 132" d="M43.366,27.752,51.8,3.511h4.708l8.432,24.241H59.7l-1.476-4.6H50.112l-1.476,4.6ZM51.411,19h5.481l-2.741-8.537Z" transform="translate(13.69 1.108)" fill="#fff"/>
    <path id="パス_133" data-name="パス 133" d="M79.7,3.511V27.753h-4.11l-9.451-15v15H61.47V3.511h4.076l9.486,15.212V3.511Z" transform="translate(19.405 1.108)" fill="#fff"/>
    <rect id="長方形_21" data-name="長方形 21" width="4.918" height="24.241" transform="translate(103.735 4.619)" fill="#fff"/>
    <g id="グループ_30" data-name="グループ 30" transform="translate(0 0)">
      <g id="グループ_29" data-name="グループ 29" clip-path="url(#clip-path)">
        <path id="パス_134" data-name="パス 134" d="M104.3,15.216v2.213c0,7.413-3.443,10.716-8.924,10.716-5.444,0-9.274-3.3-9.274-10.716V14.337c0-7.834,3.83-11.066,9.274-11.066,5.094,0,8.152,2.88,8.889,7.835H99.554c-.421-2.214-1.721-3.689-4.181-3.689-2.845,0-4.356,1.931-4.356,6.569v3.443c0,4.638,1.512,6.571,4.356,6.571,2.776,0,3.9-1.722,4.181-4.638H95.48V15.216Z" transform="translate(27.18 1.033)" fill="#fff"/>
        <path id="パス_135" data-name="パス 135" d="M100.43,27.752l8.432-24.241h4.708L122,27.752h-5.235l-1.476-4.6h-8.115l-1.476,4.6ZM108.475,19h5.481l-2.741-8.537Z" transform="translate(31.704 1.108)" fill="#fff"/>
        <path id="パス_136" data-name="パス 136" d="M126.832,27.753h-4.673L116.608,3.511h5.271l3.233,15.95,4.6-15.95h4.426l4.743,16.055,3.2-16.055h5.3L141.8,27.753H137.09l-5.129-16.688Z" transform="translate(36.811 1.109)" fill="#fff"/>
        <path id="パス_137" data-name="パス 137" d="M139.743,27.752l8.432-24.241h4.708l8.432,24.241H156.08l-1.476-4.6h-8.115l-1.476,4.6ZM147.788,19h5.481l-2.741-8.537Z" transform="translate(44.115 1.108)" fill="#fff"/>
        <path id="パス_138" data-name="パス 138" d="M15,30.117l.005,3.355A16.833,16.833,0,0,1,15,.007l.005,3.3A13.526,13.526,0,0,0,15,30.117M18.608,0l.008,3.308a13.526,13.526,0,0,1-.008,26.81v3.359A16.832,16.832,0,0,0,18.608,0M7.2,16.729a9.617,9.617,0,1,1,11.4,9.453v3.048a12.628,12.628,0,1,0-3.6-.007V26.178a9.627,9.627,0,0,1-7.8-9.449m9.616,8.659a8.714,8.714,0,1,1,8.718-8.714,8.718,8.718,0,0,1-8.718,8.714m2.7-8.724a2.7,2.7,0,1,0-2.7,2.7,2.705,2.705,0,0,0,2.7-2.7" transform="translate(0 0)" fill="#fff"/>
      </g>
    </g>
  </g>
</svg>
