<svg xmlns="http://www.w3.org/2000/svg" xmlns:xlink="http://www.w3.org/1999/xlink" width="40.51" height="35.811" viewBox="0 0 40.51 35.811">
  <defs>
    <clipPath id="clip-path">
      <rect id="長方形_179" data-name="長方形 179" width="40.51" height="35.811" fill="none"/>
    </clipPath>
  </defs>
  <g id="グループ_146" data-name="グループ 146" transform="translate(0 0)">
    <g id="グループ_145" data-name="グループ 145" transform="translate(0 0)" clip-path="url(#clip-path)">
      <path id="パス_790" data-name="パス 790" d="M7.625,24.879C3.585,24.879,0,22.489,0,17.465V7.449C0,2.283,3.585,0,7.625,0s7.626,2.283,7.626,7.415v10.05c0,5.025-3.586,7.415-7.626,7.415m0-21.331c-2.213,0-3.585,1.511-3.585,4.111v9.559c0,2.6,1.371,4.111,3.585,4.111,2.178,0,3.549-1.511,3.549-4.111V7.659c0-2.6-1.371-4.111-3.549-4.111" transform="translate(0 0)" fill="#fff226"/>
      <path id="パス_791" data-name="パス 791" d="M22.077,24.48H18V4.625l-3.479,2.39V2.9L18.247.232h3.83Z" transform="translate(5.174 0.082)" fill="#fff226"/>
      <path id="パス_792" data-name="パス 792" d="M1.5,25.709v2.264H.462v-6.2H2.575c1.425,0,2.28.682,2.28,1.957,0,1.259-.844,1.976-2.28,1.976Zm.96-.9c.952,0,1.349-.368,1.349-1.078,0-.673-.4-1.05-1.349-1.05H1.5v2.128Z" transform="translate(0.165 7.757)" fill="#fff226"/>
      <path id="パス_793" data-name="パス 793" d="M7.244,28.075c-1.382,0-2.316-.835-2.316-2.784V24.5c0-1.949.934-2.784,2.316-2.784s2.327.835,2.327,2.784v.791c0,1.949-.934,2.784-2.327,2.784M5.97,25.291c0,1.337.449,1.877,1.275,1.877s1.286-.54,1.286-1.877V24.5c0-1.337-.458-1.877-1.286-1.877S5.97,23.163,5.97,24.5Z" transform="translate(1.756 7.736)" fill="#fff226"/>
      <rect id="長方形_178" data-name="長方形 178" width="1.043" height="6.197" transform="translate(13.379 29.533)" fill="#fff226"/>
      <path id="パス_794" data-name="パス 794" d="M16.746,21.775v6.2h-.925L13.3,23.761v4.211H12.291v-6.2h.9l2.551,4.267V21.775Z" transform="translate(4.379 7.757)" fill="#fff226"/>
      <path id="パス_795" data-name="パス 795" d="M21.459,21.775v.907H19.679v5.289H18.638V22.683H16.851v-.907Z" transform="translate(6.004 7.757)" fill="#fff226"/>
      <path id="線_32" data-name="線 32" d="M.5,35.419h-1V0h1Z" transform="translate(39.832 0.311)" fill="#fff226"/>
    </g>
  </g>
</svg>
