<svg xmlns="http://www.w3.org/2000/svg" xmlns:xlink="http://www.w3.org/1999/xlink" width="188.619" height="40.495" viewBox="0 0 188.619 40.495">
  <defs>
    <filter id="パス_934" x="19.584" y="0" width="35.942" height="37.513" filterUnits="userSpaceOnUse">
      <feOffset input="SourceAlpha"/>
      <feGaussianBlur stdDeviation="3" result="blur"/>
      <feFlood/>
      <feComposite operator="in" in2="blur"/>
      <feComposite in="SourceGraphic"/>
    </filter>
    <filter id="パス_935" x="39.129" y="0.336" width="39.375" height="38.725" filterUnits="userSpaceOnUse">
      <feOffset input="SourceAlpha"/>
      <feGaussianBlur stdDeviation="3" result="blur-2"/>
      <feFlood/>
      <feComposite operator="in" in2="blur-2"/>
      <feComposite in="SourceGraphic"/>
    </filter>
    <filter id="パス_936" x="62.172" y="0.315" width="38.411" height="38.611" filterUnits="userSpaceOnUse">
      <feOffset input="SourceAlpha"/>
      <feGaussianBlur stdDeviation="3" result="blur-3"/>
      <feFlood/>
      <feComposite operator="in" in2="blur-3"/>
      <feComposite in="SourceGraphic"/>
    </filter>
    <filter id="パス_937" x="86.449" y="2.648" width="37.087" height="35.335" filterUnits="userSpaceOnUse">
      <feOffset input="SourceAlpha"/>
      <feGaussianBlur stdDeviation="3" result="blur-4"/>
      <feFlood/>
      <feComposite operator="in" in2="blur-4"/>
      <feComposite in="SourceGraphic"/>
    </filter>
    <filter id="パス_938" x="108.305" y="0.381" width="38.432" height="38.701" filterUnits="userSpaceOnUse">
      <feOffset input="SourceAlpha"/>
      <feGaussianBlur stdDeviation="3" result="blur-5"/>
      <feFlood/>
      <feComposite operator="in" in2="blur-5"/>
      <feComposite in="SourceGraphic"/>
    </filter>
    <filter id="パス_939" x="133.368" y="1.929" width="35.359" height="36.189" filterUnits="userSpaceOnUse">
      <feOffset input="SourceAlpha"/>
      <feGaussianBlur stdDeviation="3" result="blur-6"/>
      <feFlood/>
      <feComposite operator="in" in2="blur-6"/>
      <feComposite in="SourceGraphic"/>
    </filter>
    <filter id="長方形_239" x="0" y="1.967" width="28.924" height="38.528" filterUnits="userSpaceOnUse">
      <feOffset input="SourceAlpha"/>
      <feGaussianBlur stdDeviation="3" result="blur-7"/>
      <feFlood/>
      <feComposite operator="in" in2="blur-7"/>
      <feComposite in="SourceGraphic"/>
    </filter>
    <filter id="長方形_240" x="159.678" y="1.971" width="28.941" height="38.521" filterUnits="userSpaceOnUse">
      <feOffset input="SourceAlpha"/>
      <feGaussianBlur stdDeviation="3" result="blur-8"/>
      <feFlood/>
      <feComposite operator="in" in2="blur-8"/>
      <feComposite in="SourceGraphic"/>
    </filter>
  </defs>
  <g id="グループ_165" data-name="グループ 165" transform="translate(-293.001 -562.032)">
    <g transform="matrix(1, 0, 0, 1, 293, 562.03)" filter="url(#パス_934)">
      <path id="パス_934-2" data-name="パス 934" d="M16.808,12.806c-.941.785-1.593,1.347-1.593,2.064,0,1.188,2.512,1.84,5.092,1.84a24.894,24.894,0,0,0,7.4-1.324,22.137,22.137,0,0,0-.652,3.073c0,.157-.043.181-.179.224A21.815,21.815,0,0,1,21,19.513c-5.4,0-8.769-1.929-8.769-4.285a4.723,4.723,0,0,1,1.75-3.117ZM13.892,3.117a16.39,16.39,0,0,0,5.405.764,30.426,30.426,0,0,0,5.517-.495c.179-.021.314-.155.448-.155a9.944,9.944,0,0,0-1.412-1.864L25.465.831a9.929,9.929,0,0,1,2.086,2.824l-1.593.629c.516,1.121.538,1.3.538,1.412,0,.179-.134.2-.426.271a15.976,15.976,0,0,0-6.145,3.049L17.234,8.3c.672-.538,1.593-1.167,2.131-1.593.067-.067.112-.09.112-.112,0-.045-.09-.045-.134-.045a21.411,21.411,0,0,1-5.63-.672ZM28.089,0a10,10,0,0,1,2.085,2.647l-1.7.719A9.517,9.517,0,0,0,26.5.605Z" transform="translate(16.35 9)" fill="#f58232"/>
    </g>
    <g transform="matrix(1, 0, 0, 1, 293, 562.03)" filter="url(#パス_935)">
      <path id="パス_935-2" data-name="パス 935" d="M34.667,8.374c.021.472.021,1.19.021,1.952a34.749,34.749,0,0,1-.133,3.79c-.314,2.378-1.862,3.209-3.947,3.209H30.27c-.112,0-.134-.024-.157-.136a10.474,10.474,0,0,0-.9-2.129c-.45,4.036-1.595,5.54-1.64,5.54a.165.165,0,0,1-.067-.024,21.787,21.787,0,0,0-3.073-.628c2.155-2.6,2.4-7.2,2.4-9.711,0-1.031-.112-6.526-.112-6.526h9.017c0-.293-.022-.583-.022-.876-.022-.852-.091-1.726-.159-2.624,0,0,2.31.091,3.14.2.269.046.471.159.471.315s-.2.314-.738.426c-.022.9-.022,1.75-.022,2.557h3.678a10.337,10.337,0,0,0-2.94-1.772L40.362.324a13.968,13.968,0,0,1,3.522,2.085l-.831,1.3h1.64V6.221H38.479a34.114,34.114,0,0,0,.809,6.035,17.938,17.938,0,0,0,1.66-5.116,25.822,25.822,0,0,1,2.959,1.145.374.374,0,0,1,.224.291c0,.159-.157.293-.538.293a1.416,1.416,0,0,1-.293-.022,22.546,22.546,0,0,1-3.026,6.392c.719,1.547,1.569,2.355,1.974,2.355.805,0,1.122-2.131,1.257-3.7a22.376,22.376,0,0,0,2.24,2.4.2.2,0,0,1,.069.134c0,.157-.9,4.126-3.476,4.126-.359,0-2.131-.045-3.814-3.185a14.736,14.736,0,0,1-5.381,3.545c-.022,0-.067.022-.09.022-.046,0-.069-.022-.114-.067a17.8,17.8,0,0,0-2.557-1.795,13.618,13.618,0,0,0,7.088-4.128A35.7,35.7,0,0,1,35.9,6.221H29.374l.045,2.154Zm-5.226,2.333c0,1.212-.045,2.557-.179,3.9a10.609,10.609,0,0,0,1.347.155c1.167,0,1.636-.379,1.636-3.454v-.605Z" transform="translate(23.69 9.13)" fill="#f58232"/>
    </g>
    <g transform="matrix(1, 0, 0, 1, 293, 562.03)" filter="url(#パス_936)">
      <path id="パス_936-2" data-name="パス 936" d="M43.026,13.7a.863.863,0,0,1-.516.2,28.326,28.326,0,0,1-1.234,5.809c-.021.046-.045.067-.088.067h-.024a10.855,10.855,0,0,0-2.333-.29,17.939,17.939,0,0,0,1.705-6.55c.157.022,1.683.179,2.243.314a.4.4,0,0,1,.247.157l.022-1.705c-.852.134-1.75.248-2.624.36-.022.314-.157.626-.336.626-.426,0-.852-2.712-.852-2.78.605,0,1.255-.024,1.905-.067.383-.472.786-.943,1.167-1.435a18.64,18.64,0,0,0-2.983-3.052l1.21-1.771c.224.179.448.381.672.583A21.66,21.66,0,0,0,43.272.2,18.383,18.383,0,0,1,45.717,1.43.387.387,0,0,1,45.9,1.7c0,.112-.134.2-.381.2a1.286,1.286,0,0,1-.269-.022,45.051,45.051,0,0,1-2.49,3.812c.314.336.605.672.829.943a30.347,30.347,0,0,0,2.49-4.06c.045.024,1.726,1.033,2.243,1.414a.551.551,0,0,1,.224.336c0,.134-.09.224-.314.224a1.366,1.366,0,0,1-.381-.067c-.134.179-1.145,1.593-2.378,3.185l1.459-.56c.155.247.379.583.605.986A16.067,16.067,0,0,0,50.807.352s2.266.293,2.8.4c.159.046.338.159.338.271s-.179.247-.674.314c-.157.583-.381,1.412-.695,2.378h6.638v.74c0,1.3.024,2.893.024,4.531,0,7.423-.652,11.571-5.943,11.571-.293,0-.607-.021-.943-.045-.09,0-.2-.022-.224-.11A12.566,12.566,0,0,0,50.5,17.487a21,21,0,0,0,2.78.359c2.828,0,3.253-2.331,3.253-8.7V5.983h-4.8a15.263,15.263,0,0,1-1.616,2.981c-.022.024-.043.046-.067.046H50a12.292,12.292,0,0,0-2.267-.562,12.256,12.256,0,0,1,1.257,3.074l-1.84.852c-.088-.381-.179-.809-.336-1.279-.359.09-.829.157-1.412.269l.067,9.443h-2.49ZM46.143,9.28a9.4,9.4,0,0,0-.829-1.414c-.448.56-.9,1.145-1.347,1.705.876-.09,1.638-.2,2.176-.291m.719,9.756A25,25,0,0,0,45.605,13.2l1.795-.493a29.878,29.878,0,0,1,1.659,5.449ZM51.638,8.382a21.5,21.5,0,0,1,3.454,4.71l-2.354,1.593a15.2,15.2,0,0,0-3.366-5.047Z" transform="translate(32.34 9.12)" fill="#f58232"/>
    </g>
    <g transform="matrix(1, 0, 0, 1, 293, 562.03)" filter="url(#パス_937)">
      <path id="パス_937-2" data-name="パス 937" d="M70.075,9.548A5.492,5.492,0,0,0,65.252,4.12a5.17,5.17,0,0,1,.091,1.055c0,3.409-2.4,8.028-4.576,10.359a3.526,3.526,0,0,1-2.559,1.347c-1.636,0-4.216-2.152-4.216-5.652,0-4.552,4.329-9.575,10.407-9.575,5.024,0,8.68,3.43,8.68,8.05-.022,7.311-8.254,9.285-8.925,9.285A.169.169,0,0,1,64,18.9a18.147,18.147,0,0,0-2.781-2.49c3.811-.269,8.857-2.017,8.857-6.862M56.707,11.161c0,1.683,1.055,2.535,1.459,2.535a1,1,0,0,0,.741-.4c1.659-1.817,3.519-5.585,3.519-8.185a4.418,4.418,0,0,0-.067-.785c-3.229.986-5.652,4.238-5.652,6.838" transform="translate(41.46 9.99)" fill="#f58232"/>
    </g>
    <g transform="matrix(1, 0, 0, 1, 293, 562.03)" filter="url(#パス_938)">
      <path id="パス_938-2" data-name="パス 938" d="M68.563,3.445h8.3V2.078s0-1.076-.067-1.84c0,0,2.309.09,3.14.2.314.045.493.179.493.314,0,.157-.224.336-.762.426-.045.54-.045,1.166-.045,1.166v1.1h8.455V5.98H78.117c-.022.785-.09,1.548-.157,2.309H85.5c-.067,8.188-.426,12.247-5.966,12.247a17.633,17.633,0,0,1-2.064-.157c-.134-.022-.224-.022-.247-.179a11.657,11.657,0,0,0-1.683-2.938,16.71,16.71,0,0,0,3.724.605c3.028,0,3.3-2.086,3.409-7.223H77.624a14.528,14.528,0,0,1-6.661,10.228.347.347,0,0,1-.134.067c-.045,0-.067-.022-.112-.067a13.3,13.3,0,0,0-3.073-1.481c6.123-2.914,7.512-7.8,7.647-13.411H68.563Z" transform="translate(49.66 9.14)" fill="#f58232"/>
    </g>
    <g transform="matrix(1, 0, 0, 1, 293, 562.03)" filter="url(#パス_939)">
      <path id="パス_939-2" data-name="パス 939" d="M84.575,19.394A12.694,12.694,0,0,1,83.3,13.473v-.224c.09-5.114,1.39-9.352,1.479-11.864,0-.112.022-.179.09-.179s3.005.853,3.028.853c.247.088.381.2.381.314,0,.134-.2.269-.65.29C87.154,5,85.785,9.167,85.742,11.9c0,.493,0,.807.067.807.09,0,.245-.4,1.7-4.126a17.2,17.2,0,0,0,.986,2.535c-1.412,3.857-1.681,4.8-1.681,6.324a8.573,8.573,0,0,0,.09,1.231v.046a.172.172,0,0,1-.134.179ZM93.008,12.8a6.328,6.328,0,0,0-.719.9.824.824,0,0,0-.11.381c0,.74,1.367,1.279,3.723,1.279h.134a14.089,14.089,0,0,0,4.621-.921s-.336,2.154-.36,3.007a.143.143,0,0,1-.09.11,20.21,20.21,0,0,1-4.373.629c-3.924,0-6.436-1.66-6.436-3.611a3.6,3.6,0,0,1,1.3-2.424Zm-2.49-9.038a14.139,14.139,0,0,0,3.723.426,33.131,33.131,0,0,0,5.405-.517l-.022,2.715c0,.067-.022.112-.09.112a29.4,29.4,0,0,1-4.778.4,16.072,16.072,0,0,1-4.35-.495Z" transform="translate(59.07 9.72)" fill="#f58232"/>
    </g>
    <g transform="matrix(1, 0, 0, 1, 293, 562.03)" filter="url(#長方形_239)">
      <rect id="長方形_239-2" data-name="長方形 239" width="1.601" height="21.986" transform="translate(9 11.66) rotate(-25.54)" fill="#f58232"/>
    </g>
    <g transform="matrix(1, 0, 0, 1, 293, 562.03)" filter="url(#長方形_240)">
      <rect id="長方形_240-2" data-name="長方形 240" width="21.986" height="1.601" transform="translate(168.68 30.8) rotate(-64.41)" fill="#f58232"/>
    </g>
  </g>
</svg>
