<svg xmlns="http://www.w3.org/2000/svg" xmlns:xlink="http://www.w3.org/1999/xlink" width="574" height="249.699" viewBox="0 0 574 249.699">
  <defs>
    <clipPath id="clip-path">
      <rect width="574" height="249.699" fill="none"/>
    </clipPath>
  </defs>
  <g id="リピートグリッド_3" data-name="リピートグリッド 3" clip-path="url(#clip-path)">
    <g id="グループ_167" data-name="グループ 167" transform="translate(-119 -275)">
      <rect id="長方形_25" data-name="長方形 25" width="499" height="25" transform="translate(137 416)" fill="#95bc46"/>
      <g id="グループ_32" data-name="グループ 32" transform="translate(-313 736.001)">
        <path id="パス_139" data-name="パス 139" d="M20.6,100.986c1.825,0,3.325-.2,4.628-.2,1.564,0,1.695.651,1.695,2.738v3.063c0,2.086-.131,2.739-1.695,2.739-.977,0-1.956-.131-2.868-.131H13.433c-2.151,0-2.216,1.108-2.216,2.934V150.2c0,3.325.131,6.584.131,9.908,0,2.087-.262,2.282-2.413,2.282H5.154c-1.695,0-2.087-.2-2.087-2.087,0-3.39.131-6.714.131-10.1V110.308c0-2.346-.2-4.629-.2-6.974,0-2.152,1.043-2.478,2.933-2.478,1.369,0,2.673.131,3.977.131Z" transform="translate(431.803 -467.612)" fill="#fff"/>
        <path id="パス_140" data-name="パス 140" d="M82.1,111.511a34.67,34.67,0,0,0,4.5-.2,13.659,13.659,0,0,1,1.63-.131c2.021,0,5.606,4.89,5.606,5.8a7.605,7.605,0,0,1-.978,2.02,120.882,120.882,0,0,1-9.061,14.081,1.778,1.778,0,0,0-.521,1.238,1.473,1.473,0,0,0,.912,1.369,135,135,0,0,1,11.865,9.256c.651.587,2.933,2.608,3.389,3.195a.929.929,0,0,1,.392.782c0,1.825-5.476,7.562-7.3,7.562-.977,0-1.825-1.043-2.542-1.891a1.17,1.17,0,0,0-.325-.456,70.057,70.057,0,0,0-11.473-10.494,5.221,5.221,0,0,0-2.151-1.109,2.289,2.289,0,0,0-1.63.782,74.5,74.5,0,0,1-10.234,7.823c-1.434.913-7.756,4.628-9.061,4.628-1.174,0-3.585-3.585-4.3-4.628-.521-.782-1.63-2.672-1.63-3.521,0-.976.913-1.368,1.694-1.63,10.1-3.585,20.926-12.385,26.792-21.381a4.488,4.488,0,0,0,.913-1.955c0-1.109-1.108-1.239-2.216-1.239H66.454c-2.933,0-5.932.13-8.931.13-1.63,0-1.759-.782-1.759-3.128v-4.367c0-2.282.13-2.738,1.695-2.738,3,0,6,.2,9,.2Z" transform="translate(428.774 -468.294)" fill="#fff"/>
        <path id="パス_141" data-name="パス 141" d="M160.655,117.446a48.909,48.909,0,0,0,5.346-.2,2.911,2.911,0,0,1,.782-.065c1.108,0,2.608,1.695,3.976,3.325.457.587,2.152,2.738,2.152,3.389,0,.392-.652.978-1.7,1.891-.652.587-1.434,1.3-2.216,2.151-5.28,5.215-10.756,10.3-16.427,14.992a2.76,2.76,0,0,0-1.369,2.021,2.877,2.877,0,0,0,.717,1.564c.456.652,2.347,3.455,2.347,3.977,0,1.369-6.129,5.476-7.823,5.476-.587,0-1.108-.847-1.434-1.369a71.262,71.262,0,0,0-11.994-14.472c-.457-.456-1.434-1.369-1.434-1.955,0-1.108,5.606-5.477,7.171-5.477,1.108,0,3.585,2.543,4.433,3.39a1.731,1.731,0,0,0,1.433.718,2.594,2.594,0,0,0,1.76-.913c2.282-1.956,4.628-3.781,6.78-5.866.391-.392,1.108-1.043,1.108-1.7,0-.847-.978-.912-2.152-.912H128.779c-2.869,0-6.192.13-8.8.13-1.825,0-1.956-1.173-1.956-3.52V120.9c0-3.128.131-3.585,1.7-3.585,3.064,0,6.062.131,9.061.131Z" transform="translate(424.257 -468.688)" fill="#fff"/>
        <path id="パス_142" data-name="パス 142" d="M233.259,127.283c3.846,0,8.018-.261,8.6-.261,1.7,0,1.957.717,1.957,2.608v3.128c0,3.585-.065,4.693-2.151,4.693-2.543,0-5.542-.2-8.41-.2H203.274c-2.869,0-5.932.2-8.344.2-2.216,0-2.216-1.238-2.216-4.693v-3c0-1.955.2-2.737,1.89-2.737.913,0,4.564.261,8.67.261Z" transform="translate(419.357 -469.333)" fill="#fff"/>
        <path id="パス_143" data-name="パス 143" d="M286.528,150.456c0,2.151.065,4.3.065,6.517,0,3.128-.2,3.391-4.433,3.391h-2.933c-2.608,0-3.39-.327-3.39-2.021,0-2.608.13-5.149.13-7.757V112.973c0-2.673-.13-6.063-.13-8.083,0-.848.13-1.24,1.043-1.24a96.411,96.411,0,0,1,10.038,1.305c.392.13.718.391.718.781a1.138,1.138,0,0,1-.391.783,3.389,3.389,0,0,0-.718,2.346v12.646c0,.327.065.912.782.912.392,0,.782-.259,1.108-.259a6.7,6.7,0,0,1,2.412,1.043c2.086,1.3,4.759,3.389,5.606,4.041a77.433,77.433,0,0,1,6,5.278,1.686,1.686,0,0,1,.457,1.045c0,1.3-4.759,6.583-6.259,6.583-.586,0-1.238-.651-1.63-1.043-1.108-1.043-6.453-5.866-7.5-5.866-.912,0-.977.913-.977,1.565Z" transform="translate(413.904 -467.8)" fill="#fff"/>
        <path id="パス_144" data-name="パス 144" d="M345.307,118.365c.782.391,4.367,2.281,4.889,2.737a1.162,1.162,0,0,1,.261.652c0,.326-.326.521-.587.652a3.433,3.433,0,0,0-1.63,1.825A114.946,114.946,0,0,1,335.724,143.2c-.977,1.174-4.628,5.606-5.932,5.606-1.239,0-8.083-4.237-8.083-5.867a2.057,2.057,0,0,1,.587-1.108,75.5,75.5,0,0,0,16.949-24.184c.261-.652.521-1.369,1.108-1.369.848,0,4.041,1.564,4.954,2.087m21.186.456a84.41,84.41,0,0,1,7.627,10.169c1.3,2.086,6.779,11.017,6.779,12.907,0,1.5-2.346,2.738-4.171,3.716-1.044.52-3.651,1.759-4.759,1.759-.848,0-1.369-1.239-1.89-2.346a101.831,101.831,0,0,0-11.929-20.469,2.115,2.115,0,0,1-.782-1.434c0-1.434,5.867-5.345,7.171-5.345a2.678,2.678,0,0,1,1.956,1.043" transform="translate(410.895 -468.628)" fill="#fff"/>
        <path id="パス_145" data-name="パス 145" d="M418.6,115.2a1.768,1.768,0,0,0,1.76-1.825v-2.216c0-1.239-.065-4.89-.2-5.932a3.5,3.5,0,0,1-.065-.717c0-.652.652-.718,1.109-.718.912,0,7.04.261,9.256.392,1.174.064,1.564.261,1.564.587,0,.261-.521.782-.782.977-.652.521-.717.978-.717,2.933v4.694a1.809,1.809,0,0,0,1.759,1.825h6.975a25.008,25.008,0,0,0,4.041-.2c.391,0,1.044-.131,1.434-.131.977,0,2.086,1.044,3.454,2.282a11.8,11.8,0,0,0,.913.848,2.577,2.577,0,0,1,1.174,2.086c0,.391-1.3,5.346-1.5,6.323-3.454,15.124-10.82,25.1-24.249,33.05a9.749,9.749,0,0,1-3.847,1.63c-1.695,0-6.127-6-6.127-7.431,0-.587.587-.847,1.5-1.174a32.309,32.309,0,0,0,5.346-2.8c5.8-3.585,11.017-8.6,13.95-14.6.978-1.955,3-7.1,3-9.191,0-1.369-1.3-1.5-2.477-1.5H414.563a1.752,1.752,0,0,0-1.76,1.759v4.758c0,1.891.131,3.716.131,5.606s-.587,2.022-4.042,2.022h-2.086c-3.651,0-4.107-.066-4.107-1.827,0-1.825.064-3.584.064-5.345v-9.517c0-1.043-.064-2.086-.064-3.128,0-2.739,0-3.652,3.584-3.652,2.869,0,5.672.131,8.54.131Z" transform="translate(405.582 -467.809)" fill="#fff"/>
        <path id="パス_146" data-name="パス 146" d="M501.567,111.511a34.67,34.67,0,0,0,4.5-.2,13.659,13.659,0,0,1,1.63-.131c2.021,0,5.606,4.89,5.606,5.8a7.606,7.606,0,0,1-.978,2.02,120.867,120.867,0,0,1-9.061,14.081,1.778,1.778,0,0,0-.521,1.238,1.473,1.473,0,0,0,.912,1.369,135,135,0,0,1,11.865,9.256c.651.587,2.933,2.608,3.389,3.195a.929.929,0,0,1,.392.782c0,1.825-5.476,7.562-7.3,7.562-.977,0-1.825-1.043-2.542-1.891a1.169,1.169,0,0,0-.325-.456,70.057,70.057,0,0,0-11.473-10.494,5.221,5.221,0,0,0-2.151-1.109,2.289,2.289,0,0,0-1.63.782,74.5,74.5,0,0,1-10.234,7.823c-1.434.913-7.756,4.628-9.061,4.628-1.174,0-3.585-3.585-4.3-4.628-.521-.782-1.63-2.672-1.63-3.521,0-.976.913-1.368,1.694-1.63,10.1-3.585,20.926-12.385,26.792-21.381a4.488,4.488,0,0,0,.913-1.955c0-1.109-1.108-1.239-2.216-1.239h-9.908c-2.933,0-5.932.13-8.931.13-1.63,0-1.759-.782-1.759-3.128v-4.367c0-2.282.13-2.738,1.695-2.738,3,0,6,.2,9,.2Z" transform="translate(401.255 -468.294)" fill="#fff"/>
        <path id="パス_147" data-name="パス 147" d="M550.1,162.266c-1.825,0-3.324.2-4.628.2-1.564,0-1.7-.651-1.7-2.738v-3.064c0-2.086.132-2.738,1.7-2.738.977,0,1.956.131,2.869.131h8.93c2.151,0,2.216-1.108,2.216-2.934V113.05c0-3.325-.131-6.584-.131-9.908,0-2.087.261-2.282,2.412-2.282h3.781c1.7,0,2.086.2,2.086,2.087,0,3.39-.13,6.714-.13,10.1v39.894c0,2.346.2,4.629.2,6.974,0,2.152-1.044,2.478-2.933,2.478-1.369,0-2.673-.131-3.978-.131Z" transform="translate(396.327 -467.617)" fill="#fff"/>
        <path id="パス_148" data-name="パス 148" d="M603.143,121.937c.582.259,1,.486,1,.776,0,.258-.356.355-.582.42a2.093,2.093,0,0,0-.873,1.229c0,.259.162.356.388.356a14.573,14.573,0,0,0,2.619-.712,2.865,2.865,0,0,1,.905-.226c.711,0,.874.679,1,1.26a14.235,14.235,0,0,1,.388,2.619c0,.486-.291.615-2.069.938s-3.978.712-5.983.938c-1.034.129-1.1.841-1.1.873,0,.162.162.227.292.227a1.06,1.06,0,0,0,.292-.1,8.048,8.048,0,0,1,2.748-.485,4.74,4.74,0,0,1,2.329.517,3.235,3.235,0,0,1,1.552,1.844.579.579,0,0,0,.549.388,18.416,18.416,0,0,0,3.008-1.52c.291-.161.518-.291.647-.355a1.129,1.129,0,0,1,.42-.162c.809,0,1.941,3.719,1.941,4.463,0,.42-.323.517-.97.744-1.552.582-2.523,1-4.009,1.617-.776.323-.905.615-.905,1.488,0,.388.032,1.164.032,1.875,0,2.07-.032,2.1-1.843,2.1-2.231,0-2.911-.1-2.911-1.1a8.072,8.072,0,0,1,.065-.874v-.162a.409.409,0,0,0-.388-.452c-.323,0-1.94,1.034-1.94,2.166,0,1.617,2.748,1.617,3.881,1.617a27.154,27.154,0,0,0,6.014-.808,3.922,3.922,0,0,1,.808-.1c.776,0,.809,1.164.809,3.234,0,1.229-.065,1.552-1,1.745a44.091,44.091,0,0,1-6.274.389,12.113,12.113,0,0,1-5.659-1.035,5.249,5.249,0,0,1-3.3-5.012c0-3.04,2.3-4.785,4.656-6.176.55-.322,1.2-.678,1.779-.97.291-.13.549-.291.549-.647a.922.922,0,0,0-1-.841,9.962,9.962,0,0,0-4.43,1.875,14.623,14.623,0,0,0-3.427,4.593.527.527,0,0,1-.485.355c-.712,0-4.01-1.811-4.01-2.586,0-.259.194-.453.582-.874,1.326-1.519,3.428-4.882,4.463-6.338a.716.716,0,0,0,.194-.452.47.47,0,0,0-.486-.452c-.388,0-.84.032-1.26.032-1.1,0-1.2-.1-1.2-2.523,0-2,.129-2.037,1.163-2.037.711,0,1.876.065,2.943.065,1.584,0,1.874-.13,2.134-.582a15.966,15.966,0,0,0,1.519-4.01c.1-.485.162-.712.485-.712a39.569,39.569,0,0,1,3.945,1.552" transform="translate(393.382 -468.898)" fill="#fff"/>
        <path id="パス_149" data-name="パス 149" d="M11.864,56.022c-1.3.783-5.084,2.934-6.518,2.934C3,58.956,0,53.61,0,51.981c0-.977.913-1.239,1.695-1.5,6.584-2.282,12.125-6.519,14.146-13.3a22.454,22.454,0,0,0,.847-4.564c0-1.695-1.173-1.759-2.542-1.759H8.6c-2.151,0-4.367.2-6.388.2-1.238,0-1.369-.782-1.369-2.869v-3.52c0-1.956.131-2.738,1.369-2.738,1.76,0,4.107.2,6.388.2H23.272A1.865,1.865,0,0,0,25.1,20.3V7.067a39.871,39.871,0,0,0-.2-5.019,2.216,2.216,0,0,1-.065-.652c0-.847.587-.978,1.3-.978a13.661,13.661,0,0,1,1.63.131c2.347.2,4.693.392,7.041.651.521.065,1.3.2,1.3.913,0,.457-.261.587-.717,1.043-.521.457-.652,1.826-.652,3.325,0,.978.065,2.021.065,3V20.3a1.821,1.821,0,0,0,1.825,1.825H50.911c2.346,0,4.628-.2,6.388-.2,1.174,0,1.3.782,1.3,2.282v4.3c0,1.89-.13,2.542-1.3,2.542-2.021,0-4.237-.2-6.388-.2H41.784a1.865,1.865,0,0,0-1.825,1.825v13.95c0,1.891.131,2.608,2.282,2.608h3.91c2.542,0,3.064-1.564,3.651-5.671.2-1.239.457-1.956,1.89-1.956a12.2,12.2,0,0,1,5.541,1.695A2.629,2.629,0,0,1,58.8,45.723a25.184,25.184,0,0,1-2.347,8.93c-1.695,3.195-4.693,3.651-8.018,3.651H38.591c-4.889,0-8.083-.326-8.083-6,0-1.76.065-3.585.065-5.346V32.686a1.865,1.865,0,0,0-1.825-1.825h-.978c-.261,0-.912,0-.912.391a.612.612,0,0,0,.325.457c.326.261.718.651.718,1.043,0,.651-.718.847-1.174,1.043-.456.131-.587.456-.652.913-1.564,9.582-5.8,16.361-14.21,21.315M18.448,8.175c.718,1.434,3.585,7.823,3.585,9,0,1.89-6.128,3.781-7.366,3.781-.847,0-1.044-.522-1.956-2.934-.2-.521-.456-1.174-.717-1.89a86.383,86.383,0,0,0-4.108-8.6,4.965,4.965,0,0,1-.521-1.368c0-1.239,6.128-3.651,7.106-3.651,1.433,0,2.086,1.759,3.976,5.671m33.31-2.738c1.695.782,2.672,1.5,2.672,2.151,0,.718-1.108.782-1.63.913A1.761,1.761,0,0,0,51.758,9.61c-.782,1.825-5.671,11.8-7.366,11.8-.913,0-6.975-3.194-6.975-4.693a7.455,7.455,0,0,1,1.108-1.956A49.688,49.688,0,0,0,44,3.352c.131-.326.262-.782.652-.782.718,0,5.215,1.955,7.105,2.868" transform="translate(432 -461.027)" fill="#fff"/>
        <path id="パス_150" data-name="パス 150" d="M111.7,4.46c0-1.695-.131-2.216-.131-2.542,0-.912.717-1.043,1.434-1.043.913,0,7.627.391,8.279.521.521.065,1.108.261,1.108.913,0,.521-.391.651-.782.847-1.044.457-1.044,1.044-1.044,2.478V7.459a1.884,1.884,0,0,0,2.021,1.89h.652c1.63,0,3.259-.13,4.889-.13,1.89,0,3,.456,3,2.8,0,5.345-.456,10.755-.456,16.1v.651c0,1.63.065,5.542.717,5.542.847,0,1.108-3.847,1.174-4.564.065-.587.261-1.174.977-1.174,1.239,0,4.5,2.216,4.5,3.455a29.8,29.8,0,0,1-2.02,8.474,6.662,6.662,0,0,1-5.606,4.367c-.392.065-.848.261-.848.782,0,.392.2.587.456.913.977,1.108,6.388,7.5,6.388,8.539,0,1.89-5.932,4.628-6.844,4.628-.718,0-1.043-.718-1.5-1.369a58.72,58.72,0,0,0-6.714-8.866,1.387,1.387,0,0,1-.457-.782c0-.847,3.39-2.672,4.172-3.064.392-.261.913-.521.913-1.108,0-.325-.261-.521-.521-.717-1.565-1.044-2.282-3.455-2.608-5.215-.065-.261-.13-1.108-.521-1.108a.513.513,0,0,0-.456.326c-.392.456-.847.977-1.434.977s-1.044-.652-1.434-1.043c-.391-.456-1.108-1.3-1.759-1.3-.718,0-1.043.717-1.239,1.238a42.284,42.284,0,0,1-3.781,6.715c-.652.913-1.108,1.63-1.89,1.63-1.5,0-6-2.087-6.91-3.585a1.141,1.141,0,0,0-.978-.652.824.824,0,0,0-.391.065c-3.716.717-13.69,1.434-17.861,1.76-1.826.13-1.826.13-2.282.847-.2.326-.392.652-.782.652-.913,0-1.239-1.369-1.76-3.651-.2-.782-.456-1.695-.652-2.672a11.149,11.149,0,0,1-.261-1.434c0-.847.718-.847,1.434-.847h.587c.718,0,6.323-.2,6.844-.261.587,0,.978-.456.978-1.174v-.521A1.038,1.038,0,0,0,87.128,33.4c-1.7,0-3.39.131-5.085.131-1.108,0-1.368-.456-1.368-1.5v-2.8a2.82,2.82,0,0,0-.978-1.825c-.847-.782-2.216-2.542-2.216-3.782,0-.587.521-.782,1.174-1.043,2.868-1.238,6-3.651,6-4.367,0-.521-.587-.587-.977-.587-1.109,0-2.217.065-3.326.065-1.694,0-1.825-.392-1.825-2.021V13.651c0-1.564.131-1.955,1.76-1.955,1.759,0,3.585.13,5.41.13h1.891a.753.753,0,0,0,.781-.782.739.739,0,0,0-.717-.782h-.717c-1.76,0-3.455.131-5.215.131-1.3,0-1.434-.392-1.434-1.695V5.959c0-1.433.13-1.955,1.3-1.955,1.826,0,3.585.2,5.346.2A1.365,1.365,0,0,0,88.3,2.9c0-.326-.131-1.174-.131-1.565,0-.782.521-.912,1.174-.912,1.043,0,6.844.521,8.083.651.521.131,1.63.2,1.63.913,0,.456-.587.782-.978,1.043a.581.581,0,0,0-.326.521.634.634,0,0,0,.718.652h.261c1.956,0,3.976-.2,5.932-.2,1.369,0,1.369.651,1.369,2.607V7.719c0,2.087,0,2.673-1.433,2.673-2.087,0-4.172-.131-6.259-.131h-.261a.739.739,0,0,0-.848.782c0,.456.326.782.913.782h.326c2.412,0,4.823-.13,7.171-.13,1.76,0,1.76.456,1.76,2.412v1.825c0,1.369-.131,1.76-1.695,1.76-1.108,0-2.282-.065-3.39-.065a1.018,1.018,0,0,0-1.044.978c0,1.695.2,1.759.914,1.759.912,0,.912-.717,1.043-1.695.064-.521.456-.651.977-.651,1.108,0,4.3.391,4.3,2.02a8.864,8.864,0,0,1-.13,1.239v.2a.28.28,0,0,0,.261.261c.2,0,.325-.2.456-.325a.949.949,0,0,1,.847-.457c.326,0,.392.13.652.13.456,0,.782-.391.782-.977a3.8,3.8,0,0,1,.131-.847v-.326a1.282,1.282,0,0,0-1.239-1.238h-.587c-1.238,0-1.369-.521-1.369-2.216V11.565c0-1.89.131-2.346,1.369-2.346h.782A1.294,1.294,0,0,0,111.7,7.785ZM92.8,46.9c.651.261,1.759.651,1.759,1.5,0,.717-.782.782-1.3.847-.652.131-.847.587-1.5,1.76-.13.261-.326.587-.521.912-.978,1.826-3,5.346-4.172,6.975a1.769,1.769,0,0,1-1.434.913c-1.89,0-7.235-2.869-7.235-4.3,0-.456.587-1.043.977-1.5a51.206,51.206,0,0,0,5.411-8.866c.2-.456.456-.977.977-.977a28.919,28.919,0,0,1,4.759,1.825A17.793,17.793,0,0,0,92.8,46.9M87.062,25.124c-.326.326-1.3.977-1.63,1.238-.2.131-.521.326-.521.587,0,.326.2.392,1.043.392h1.3a.961.961,0,0,0,.978-.978c0-.391,0-1.564-.521-1.564a1.22,1.22,0,0,0-.652.326m7.3-5.672a1.765,1.765,0,0,0-1.955-1.89h-.782c-.326,0-.718,0-.718.392,0,.326.392.456.783.652.521.26,1.825.847,1.825,1.5,0,.521-.717.652-1.108.652a1.636,1.636,0,0,0-1.434.782,9.268,9.268,0,0,0-.913.848c-.2.2-.456.391-.456.651,0,.521.587.521.978.521.2.065,2.476.2,2.607.2.848,0,1.043-.457,1.108-1.826,0-.651.064-1.238.064-2.151Zm11.017,31.812a31.8,31.8,0,0,1,.978,5.345c0,1.434-2.086,1.826-3.194,2.087a19.494,19.494,0,0,1-3.846.521c-2.152,0-1.956-1.108-2.282-3.585A45.045,45.045,0,0,0,95.8,49.048a3.427,3.427,0,0,1-.2-.782c0-1.76,5.411-2.282,6.715-2.282,1.956,0,2.02,1.174,3.063,5.28M98.274,25.841c-.325,0-1.173,0-1.173.783a.67.67,0,0,0,.651.717h.913c1.5,0,2.934-.065,4.433-.065,1.3,0,1.434.326,1.434,1.63v2.934c0,1.173-.131,1.694-1.239,1.694-1.759,0-3.454-.131-5.215-.131a1.167,1.167,0,0,0-1.108,1.239,1.147,1.147,0,0,0,1.174,1.043c1.76,0,5.215-.521,6.192-.521.521,0,.848.2.978,1.434,0,.261,0,.718.392.718.325,0,.587-.522.717-.718.782-1.238,2.607-4.823,2.607-6.128s-.782-1.63-2.02-2.477c-.521-.391-.913-.651-.913-1.368a5.268,5.268,0,0,1,.2-.718.366.366,0,0,0-.392-.326,16.968,16.968,0,0,1-3.325.261Zm20.469,24.51a46.463,46.463,0,0,1,1.565,5.867c0,1.956-6.649,2.8-7.627,2.8-1.238,0-1.434-.912-1.695-2.215a3.342,3.342,0,0,0-.13-.718,57.68,57.68,0,0,0-1.826-7.366,3.424,3.424,0,0,1-.2-.782c0-1.564,5.41-2.282,6.649-2.282,1.825,0,1.956.718,3.259,4.693M120.7,28.905a1.2,1.2,0,0,0,.782.326c.457,0,.522-.587.522-1.63,0-3.455.13-6.975.13-8.866,0-.456-.13-1.238-.717-1.238-.783,0-.978.717-.978,1.3-.13,1.956-.521,5.279-.848,7.171a3.261,3.261,0,0,0-.131.782c0,1.369.783,1.695,1.239,2.151" transform="translate(426.917 -461.028)" fill="#fff"/>
        <path id="パス_151" data-name="パス 151" d="M185.005,3.864A1.556,1.556,0,0,0,186.569,2.5c0-.326-.13-.717-.13-1.043,0-.847.587-.978,1.3-.978.913,0,5.736.326,6.844.457,1.239.13,2.087.13,2.087.716s-.587.978-1.043,1.3a.338.338,0,0,0-.131.261.733.733,0,0,0,.782.652h3.39c2.216,0,4.433-.13,6.649-.13,1.369,0,3.063.13,3.063,2.216,0,.782-.13,2.019-.13,3.454v.717c0,1.434.13,2.738.13,3.521,0,1.89-1.433,2.151-3,2.151-2.216,0-4.432-.065-6.714-.065h-3.585a.724.724,0,0,0-.718.718v.391a.724.724,0,0,0,.718.718h10.561c1.433,0,2.933-.065,4.367-.065.977,0,1.955.065,1.955,1.3,0,2.021-1.173,6.975-2.281,8.669a4.228,4.228,0,0,1-3,2.087c-2.542.652-2.672,1.238-2.672,3.78V44.15c0,1.759.13,3.258.13,4.237,0,1.825-1.5,2.347-3.715,2.347h-.652c-.2,0-.587.065-.587.326,0,.587,4.367.913,5.084.977,2.216.2,4.368.392,6.585.457.977,0,1.173.064,1.173.717a15.67,15.67,0,0,1-.782,4.237c-.456,1.5-1.108,2.216-2.738,2.216a61.44,61.44,0,0,1-10.3-1.174,57.2,57.2,0,0,1-8.6-1.956c-.521-.2-1.108-.455-1.108-1.107a7.57,7.57,0,0,1,1.434-3.129,1.293,1.293,0,0,0,.391-.847c0-.587-.587-.847-1.108-.847H179.269c-.587,0-1.108.26-1.108.847,0,.131.065.326.391.847.652,1.043,1.76,2.673,2.347,3.651a1.383,1.383,0,0,1,.261.782.626.626,0,0,1-.587.52,2.96,2.96,0,0,1-1.043-.194,2.741,2.741,0,0,0-.782-.2,1.872,1.872,0,0,0-.587.131C173.467,58.165,164.8,59.6,160.039,59.6c-1.369,0-1.63-.521-2.087-1.825a17.761,17.761,0,0,1-1.043-4.369c0-1.042.652-1.042.978-1.042a79.513,79.513,0,0,0,11.017-.717c1.825-.261,2.216-.457,2.216-.719,0-.129,0-.26-.587-.26s-1.174.065-1.76.065c-1.695,0-4.041-.065-4.041-2.347,0-.912.2-2.412.2-4.237V33.328c0-.976-.2-2.02-1.434-2.02a8.865,8.865,0,0,0-2.281.457,7.1,7.1,0,0,1-1.63.261c-2.477,0-3.716-4.237-3.716-5.606,0-1.108.456-1.239,2.738-1.565.848-.131,5.932-.976,5.932-1.825,0-.325-.456-.391-.717-.391h-1.825c-1.89,0-3.977-.066-3.977-1.238a7.181,7.181,0,0,1,.457-1.695c.717-2.347,1.368-4.89,1.825-7.106.261-1.368.717-1.695,2.087-1.695h9.843a.9.9,0,0,0,.847-.977.809.809,0,0,0-.783-.847h-6.388c-2.087,0-4.107.065-6.128.065-1.174,0-1.369-.326-1.369-1.565V5.493c0-1.367.13-1.759,1.369-1.759,2.021,0,4.041.13,6.128.13h5.605a1.531,1.531,0,0,0,1.5-1.565V1.517c0-.976.456-1.238,1.369-1.238.977,0,7.105.326,7.953.457.456.064.977.325.977.911,0,.522-.325.719-.651.914s-.587.326-.587.651a.69.69,0,0,0,.782.652Zm-14.08,13.69a.993.993,0,0,0,.913-1.044c0-.457-.392-.782-.978-.782h-1.433c-1.239,0-1.89.065-1.89.977a.863.863,0,0,0,.848.848Zm13.95,9.322a1.822,1.822,0,0,0,1.826-1.827v-.586a1.782,1.782,0,0,0-1.826-1.825h-5.41a4.039,4.039,0,0,0-3,1.564c-.326.325-.847.782-1.3,1.173-.391.327-.718.653-.718.914,0,.456.521.587.848.587Zm9.844,7.04a.723.723,0,0,0,.717-.717v-.392a.722.722,0,0,0-.717-.716H175.162a.723.723,0,0,0-.718.716V33.2c0,.391.262.652.718.717Zm-19.556,3.977a.74.74,0,0,0-.718.782V39a.724.724,0,0,0,.718.717h19.556a.723.723,0,0,0,.717-.717v-.326a.7.7,0,0,0-.717-.782Zm0,5.671a.724.724,0,0,0-.718.718v.391a.724.724,0,0,0,.718.718h19.556a.723.723,0,0,0,.717-.718v-.391a.684.684,0,0,0-.717-.718Zm6.454-27.835a.892.892,0,0,0-.913.913.84.84,0,0,0,.847.913h4.432a.724.724,0,0,0,.718-.718v-.391a.684.684,0,0,0-.718-.718Zm4.237-4.824a.862.862,0,0,0,.848-.847V9.862a.808.808,0,0,0-.848-.783h-3.39c-.521,0-.782.457-.782.977s.326.783.848.847Zm13.494,0a.862.862,0,0,0,.847-.847V9.862a.808.808,0,0,0-.847-.783h-3.128a.809.809,0,0,0-.848.783v.194a.91.91,0,0,0,.848.847ZM197.2,22.638a1.823,1.823,0,0,0-1.826,1.825v1.565a.873.873,0,0,0,.913.847c.782,0,.913-.457.913-1.239,0-1.3.587-1.369,1.5-1.369.782,0,1.5.064,2.282.064a3.864,3.864,0,0,0,1.695-.26,1.54,1.54,0,0,0,.848-1.108c0-.326-.326-.326-.913-.326Z" transform="translate(421.775 -461.018)" fill="#fff"/>
        <path id="パス_152" data-name="パス 152" d="M260.863,3.128c1.174.522,2.021.978,2.021,1.565,0,.52-.717.717-1.174.847a4.217,4.217,0,0,0-1.76,2.476c0,.522.327.718.783.718a29.443,29.443,0,0,0,5.28-1.434,5.783,5.783,0,0,1,1.825-.456c1.434,0,1.76,1.369,2.02,2.542a28.585,28.585,0,0,1,.783,5.28c0,.978-.587,1.239-4.172,1.891s-8.018,1.433-12.059,1.89c-2.087.261-2.216,1.694-2.216,1.759,0,.326.325.457.587.457a2.078,2.078,0,0,0,.587-.2,16.257,16.257,0,0,1,5.54-.977,9.546,9.546,0,0,1,4.693,1.043c1.826,1.043,2.282,1.89,3.129,3.716a1.169,1.169,0,0,0,1.108.781c.652,0,4.107-1.955,6.062-3.063.587-.326,1.043-.587,1.3-.717a2.273,2.273,0,0,1,.848-.327c1.63,0,3.911,7.5,3.911,9,0,.847-.652,1.043-1.956,1.5-3.128,1.174-5.085,2.021-8.083,3.26-1.564.651-1.825,1.238-1.825,3,0,.782.064,2.346.064,3.781,0,4.172-.064,4.237-3.715,4.237-4.5,0-5.866-.2-5.866-2.216a15.944,15.944,0,0,1,.13-1.76v-.326a.824.824,0,0,0-.782-.912c-.652,0-3.911,2.086-3.911,4.366,0,3.26,5.541,3.26,7.823,3.26a54.776,54.776,0,0,0,12.124-1.63,7.843,7.843,0,0,1,1.631-.2c1.564,0,1.63,2.346,1.63,6.518,0,2.477-.131,3.128-2.021,3.52a89.021,89.021,0,0,1-12.646.782c-4.563,0-7.561-.325-11.408-2.086a10.584,10.584,0,0,1-6.648-10.1c0-6.127,4.628-9.647,9.387-12.45,1.108-.652,2.412-1.369,3.585-1.956.586-.262,1.108-.587,1.108-1.3a1.86,1.86,0,0,0-2.021-1.694c-2.477,0-6.975,2.281-8.931,3.781-3.063,2.412-5.019,5.867-6.91,9.256a1.059,1.059,0,0,1-.977.718c-1.434,0-8.083-3.651-8.083-5.216,0-.521.392-.912,1.174-1.759,2.672-3.064,6.91-9.843,9-12.777a1.441,1.441,0,0,0,.392-.912.947.947,0,0,0-.978-.913c-.781,0-1.694.065-2.542.065-2.216,0-2.412-.2-2.412-5.085,0-4.041.261-4.107,2.346-4.107,1.434,0,3.781.131,5.932.131,3.194,0,3.78-.262,4.3-1.174a32.164,32.164,0,0,0,3.064-8.083c.2-.978.326-1.435.977-1.435.717,0,6.91,2.673,7.953,3.129" transform="translate(416.802 -461)" fill="#fff"/>
        <path id="パス_153" data-name="パス 153" d="M307.147,2.57a31.871,31.871,0,0,1,2.282,5.02c.521,1.3,1.956,4.953,1.956,5.8,0,.912-1.174,1.3-2.542,1.89a18.373,18.373,0,0,1-4.172,1.369,1.113,1.113,0,0,1-1.043-.978,46.456,46.456,0,0,0-3.911-9.517,2.894,2.894,0,0,1-.392-1.043c0-.913,2.086-1.63,3.195-2.087a21.076,21.076,0,0,1,3.325-1.238,1.656,1.656,0,0,1,1.3.782m24.771,43.022c0,1.76.065,3.521.065,5.28,0,7.236-4.629,8.735-10.952,8.735-2.412,0-3.52-.456-3.976-2.933a24.23,24.23,0,0,1-.521-4.367c0-.847.065-2.151,1.3-2.151a6.578,6.578,0,0,1,1.043.13,13.135,13.135,0,0,0,2.151.2c2.216,0,2.282-.652,2.282-2.216v-.718c0-1.433-.652-2.281-2.151-2.281h-8.539a1.822,1.822,0,0,0-1.825,1.825v3.39c0,2.477.13,5.019.13,7.561,0,1.5-.651,1.63-2.607,1.63H304.6c-1.825,0-2.542-.13-2.542-1.564,0-2.542.194-5.084.194-7.627V26.819c0-2.021-.13-3.977-.13-6,0-2.8,1.369-3.26,3.651-3.26,1.5,0,3.064.131,4.563.131,1.89,0,2.086-1.3,2.086-2.347V6.872c0-2.8-.2-4.954-.2-5.476,0-.847.521-.912,1.239-.912,1.564,0,5.8.26,7.561.391.913.065,1.957.065,1.957.913,0,.521-.327.651-.914,1.043-.456.325-.456,1.108-.456,1.89V15.346c0,1.434.456,2.347,2.021,2.347s3.064-.131,4.628-.131c2.282,0,3.781.326,3.781,3.325,0,1.956-.13,3.911-.13,5.932Zm-9.844-17.665a1.2,1.2,0,0,0,1.239-1.239v-.2a1.2,1.2,0,0,0-1.239-1.239H312.036a1.2,1.2,0,0,0-1.238,1.239v.2a1.2,1.2,0,0,0,1.238,1.239Zm-10.038,7.3a1.2,1.2,0,0,0-1.238,1.239v.2a1.2,1.2,0,0,0,1.238,1.239h10.038a1.2,1.2,0,0,0,1.239-1.239v-.2a1.2,1.2,0,0,0-1.239-1.239ZM334.59,4.591c.913.325,1.5.651,1.5,1.3,0,.587-.718.717-.978.782-.782.131-.912.2-1.107.847a76.79,76.79,0,0,1-3.065,7.562c-.587,1.3-.977,1.955-1.825,1.955a13.8,13.8,0,0,1-3.585-1.238c-1.956-.847-3.325-1.434-3.325-2.152a4.71,4.71,0,0,1,.783-1.759,46.884,46.884,0,0,0,3.389-8.67c.2-.651.521-1.043,1.239-1.043.521,0,4.889,1.63,6.974,2.413m9.518,31.158c0,2.8.2,5.606.2,8.475,0,1.433-.587,1.564-2.477,1.564H337.98c-1.89,0-2.477-.131-2.477-1.63,0-2.8.2-5.606.2-8.41V14.369a43.344,43.344,0,0,0-.261-5.606c0-.717.587-.847,1.174-.847.717,0,5.736.326,6.974.456,1.434.131,1.956.262,1.956.848,0,.521-.456.847-.782,1.108-.651.587-.651.977-.651,6.453ZM356.1,45.2c0,1.108.131,3.781.131,5.671,0,7.171-5.477,8.539-11.473,8.539-1.5,0-3,0-3.65-1.3a14.193,14.193,0,0,1-.913-4.954c0-1.174.13-3.259,1.695-3.259.586,0,2.151.131,3.52.131,1.956,0,1.956-.783,1.956-4.108V9.088c0-1.043.065-2.346.065-3.715a32.268,32.268,0,0,0-.262-4.108c0-.781.587-.847,1.174-.847,2.216,0,5.346.2,6.975.325.977.065,1.956.131,1.956.978,0,.326-.131.456-.391.717-.717.652-.782.913-.782,3.651Z" transform="translate(412.363 -461.028)" fill="#fff"/>
        <path id="パス_154" data-name="パス 154" d="M390.127,35.87a32.872,32.872,0,0,1-.717,3.26A129.183,129.183,0,0,1,384.2,55.492a5.385,5.385,0,0,0-.392,1.369c0,.392.261.913.261,1.369a.853.853,0,0,1-.848.782c-.587,0-4.041-2.216-5.866-3.389-1.434-.913-1.956-1.239-1.956-1.89a9.246,9.246,0,0,1,.912-2.282,87.29,87.29,0,0,0,6.063-17.079c.325-1.3.391-2.087,1.433-2.087.913,0,6.323,2.021,6.323,3.585m-3.781-16.427c1.369,1.174,3.976,3.39,3.976,4.172,0,1.369-3.781,5.671-5.28,5.671-.586,0-.912-.456-1.368-.913a85.282,85.282,0,0,0-6.91-5.932c-.391-.261-.913-.651-.913-1.174a5.892,5.892,0,0,1,.848-2.02c.261-.261.521-.587.847-.978,1.174-1.3,2.608-2.933,3.454-2.933s4.172,3.064,5.346,4.107m2.8-13.82c1.63,1.369,3,2.412,3,3.195,0,1.3-3.911,6.062-5.215,6.062-.392,0-.913-.457-1.826-1.3-2.086-1.825-4.3-3.585-6.518-5.215-.391-.261-1.174-.717-1.174-1.238,0-1.108,4.172-6,5.411-6,.717,0,5.28,3.586,6.323,4.5m13.3,12.972a1.782,1.782,0,0,0-1.825,1.825v8.344c0,8.213-.848,19.425-3.194,26.857-1.3,4.041-1.434,4.367-2.608,4.367a15.6,15.6,0,0,1-4.889-1.3c-.652-.261-2.543-1.043-2.543-2.086,0-.2.652-1.956.848-2.542,3-7.887,3.846-17.34,3.846-25.748V19.117c0-2.086-.2-4.172-.2-6.258,0-2.542,1.3-3.129,3.585-3.129,2.151,0,4.3.131,6.388.131h10.365A1.838,1.838,0,0,0,414.05,7.84V6.015c0-.587-.064-1.174-.064-1.76V2.56c0-1.238.586-1.63,1.759-1.63.13,0,5.932.457,6.454.457a3.935,3.935,0,0,1,2.086.521,1.26,1.26,0,0,0,.652.2c.391,0,.521-.13.847-.392A7.4,7.4,0,0,1,428.522.279c.847,0,2.672,2.412,3.454,3.39s2.086,2.607,2.086,3.063c0,.782-.782,1.434-1.368,1.825-.261.2-.782.522-.782.847,0,.2.26.326.521.326h.521c1.825,0,1.956.326,1.956,2.608v3.846c0,2.021-.131,2.542-1.76,2.542-2.282,0-4.5-.131-6.78-.131h-1.5a1.862,1.862,0,0,0-2.086,2.087c0,2.151.064,4.237.064,6.388v.718c0,1.238.131,2.216.587,2.216.521,0,.848-.978,1.3-2.477a36.454,36.454,0,0,0,1.3-5.085c.065-.456.261-.782.717-.782a33.7,33.7,0,0,1,4.107,1.564c3.52,1.434,5.02,1.89,5.02,2.8,0,.717-.718.847-1.239,1.043-.782.261-.977.847-1.564,2.412a104.364,104.364,0,0,1-6.192,13.755,3.933,3.933,0,0,0-.652,2.086c0,.913.717,2.8,1.369,2.8.848,0,1.108-3.846,1.108-4.564,0-1.043.065-1.5,1.434-1.5,1.238,0,5.28.717,5.28,3.325a32.593,32.593,0,0,1-1.956,9.648c-1.108,2.8-2.672,4.758-5.867,4.758-3,0-5.02-1.955-6.584-4.237a1.417,1.417,0,0,0-1.108-.718c-.521,0-1.108.783-1.564,1.37-.783.912-2.869,3.52-3.977,3.52-1.238,0-6.192-3.52-6.192-4.89,0-.456.717-1.173,1.043-1.5a48,48,0,0,0,5.215-6.323,5.93,5.93,0,0,0,1.5-4.107,30.891,30.891,0,0,0-.587-4.629,120.9,120.9,0,0,1-1.173-17.013v-.261c0-1.3-.392-2.412-1.826-2.412Zm5.477,2.281c1.564,0,3-.13,4.3-.13s1.434.913,1.434,2.347v2.216c0,1.5-.131,2.412-1.434,2.412-1.369,0-2.869-.13-4.3-.13h-.392c-1.434,0-2.869.13-4.237.13s-1.5-.978-1.5-2.412V23.094c0-1.434.13-2.347,1.5-2.347,1.433,0,2.8.13,4.237.13Zm1.107,8.736c.587,0,1.108-.065,1.695-.065,1.957,0,2.477,1.044,2.477,2.8,0,1.369-.064,2.8-.064,4.172v4.693c0,1.434.064,2.8.064,4.237,0,1.695-.456,2.8-2.346,2.8a3.162,3.162,0,0,1-.782-.065c-.391,0-.457-.064-.848-.064h-1.3c-1.3,0-1.5.717-1.5,1.825v.13c0,.978-.13,1.3-1.565,1.3h-1.3c-1.238,0-1.7-.261-1.7-1.369,0-1.5.065-2.934.065-4.433V36.522c0-1.434-.13-2.8-.13-4.237,0-2.477,1.238-2.738,2.672-2.738.913,0,1.89.065,2.8.065Zm-2.607,11.212a1.03,1.03,0,0,0,1.043,1.043h.131a1.029,1.029,0,0,0,1.043-1.043V36.978a1.072,1.072,0,0,0-1.043-1.043h-.131a1.03,1.03,0,0,0-1.043,1.043ZM424.285,5.168a5.683,5.683,0,0,1-.521-.652c-.065-.13-.326-.456-.456-.456-.457,0-.521,1.173-.521,1.5V7.123c0,1.564.2,2.738,2.086,2.738h1.108c.587,0,1.108-.2,1.108-.847,0-.782-2.216-3.195-2.8-3.846" transform="translate(407.373 -461.018)" fill="#fff"/>
        <path id="パス_155" data-name="パス 155" d="M487.858,2.5c.522.065,1.5.261,1.5.717,0,.2-.2.392-.456.587a2.675,2.675,0,0,0-1.044,1.956c-.065.651-.13,2.021-.13,3,0,1.695.065,2.738,2.021,2.738,5.15,0,10.3-.651,15.449-.651.977,0,1.825.064,1.825,4.628a27.425,27.425,0,0,1-.392,4.889c-.2.521-.391.782-.977.782-.326,0-7.366-.456-9.387-.521-2.151-.065-4.367-.065-6.584-.065a1.736,1.736,0,0,0-1.89,1.956v1.564a5.8,5.8,0,0,0,.913,3.586,21.453,21.453,0,0,1,1.76,8.8c0,10.494-7.236,23.206-10.56,23.206-1.37,0-3.977-1.174-5.28-1.759-1.826-.783-3.325-1.5-3.325-2.413,0-.587.847-1.369,1.369-1.825,1.238-1.174,4.367-4.107,4.367-5.149,0-.718-.587-.847-1.174-.847-6-.131-8.279-6.91-8.279-11.929,0-5.8,2.673-12.059,9-13.233.456-.065,1.238-.13,1.238-.717,0-.326-.261-.652-.848-.652-.717,0-5.476.521-6.518.652-1.564.2-10.69,1.695-11.994,2.02a8.8,8.8,0,0,1-1.174.2c-1.043,0-1.369-1.5-1.7-5.411-.2-2.151-.261-3.65-.261-4.172,0-.977.326-1.108,1.89-1.173,5.933-.261,11.8-.718,17.013-.978,1.7-.065,3.194-.2,3.194-2.346a51.219,51.219,0,0,0-.587-7.106,1.847,1.847,0,0,1-.065-.521.885.885,0,0,1,.978-.977c1.173,0,8.6.977,10.1,1.174M476.451,35.157c0,1.174.261,4.563,2.021,4.563s2.216-3.258,2.216-4.563c0-1.369-.261-4.237-2.152-4.237-1.759,0-2.086,2.934-2.086,4.237" transform="translate(402.129 -461.087)" fill="#fff"/>
        <path id="パス_156" data-name="パス 156" d="M563.989,12.357c0,.392-.391.718-.717.913a55.2,55.2,0,0,0-8.018,6.584,1.706,1.706,0,0,0-.587,1.174,1.45,1.45,0,0,0,1.5,1.369c.2,0,.456-.065.717-.065a21.65,21.65,0,0,1,4.564.782c7.04,2.152,11.407,7.823,11.407,15.189,0,12.451-10.756,18.643-22.1,18.643-6.127,0-14.406-2.476-14.406-9.973,0-5.215,4.759-9.062,9.777-9.062a11.5,11.5,0,0,1,8.8,4.172,11.345,11.345,0,0,1,1.76,3.259,1.819,1.819,0,0,0,1.564,1.239c1.565,0,4.693-3.259,4.693-7.562,0-5.54-4.5-8.017-9.517-8.017a18.619,18.619,0,0,0-12.582,5.019,86.9,86.9,0,0,0-8.018,8.213c-.912,1.174-1.433,1.631-1.694,1.631-1.5,0-6.585-5.346-6.585-6.584,0-.783.652-1.37,2.021-2.413,1.63-1.3,12.451-12.059,14.733-14.276,1.238-1.238,2.216-2.412,3.325-3.65.456-.457.912-.848.912-1.5,0-.782-1.043-.913-1.3-.913-.2,0-7.3,1.3-9,1.564a3.169,3.169,0,0,1-.783.065c-1.5,0-1.89-7.366-1.89-8.6V8.9c0-.977.2-.977,2.086-.977h1.5c4.238-.065,13.559-.783,17.275-2.347a10.108,10.108,0,0,1,2.8-1.043c2.8,0,7.756,6.388,7.756,7.822m-17.8,32.789a1.876,1.876,0,0,0-2.086,1.76c0,1.76,2.216,2.607,3.715,2.607a1.537,1.537,0,0,0,1.63-1.433,3.247,3.247,0,0,0-3.259-2.934" transform="translate(397.588 -461.298)" fill="#fff"/>
        <path id="パス_157" data-name="パス 157" d="M48.015,256.457c0,2.282.13,4.433.13,5.215,0,1.043-.782,1.174-2.151,1.174H41.561c-2.282,0-2.869-.131-2.869-1.239v-.651a1.779,1.779,0,0,0-1.955-1.825H22.4a1.834,1.834,0,0,0-2.021,1.825c0,.2.065.326.065.521,0,1.043-.587,1.174-3.129,1.174h-4.5c-.783,0-1.631-.131-1.631-1.108,0-.782.2-3.455.2-5.28V242.833c0-.521-.065-1.3-.783-1.3a1.161,1.161,0,0,0-.651.26c-.717.522-2.8,2.152-3.651,2.152-2.216,0-5.736-5.085-5.736-6.649,0-.847,1.043-1.434,1.695-1.76a65.948,65.948,0,0,0,14.472-10.561,41.467,41.467,0,0,0,8.8-11.407c.26-.521.456-.913,1.107-.913,1.239,0,4.954,1.239,6.323,1.63,2.673.783,4.107.978,4.107,2.152a1.324,1.324,0,0,1-.717,1.108c-.2.13-.326.261-.326.456,0,.261.326.587.587.913a54.936,54.936,0,0,0,20.4,15.774c1.63.718,2.282,1.108,2.282,2.021,0,1.89-2.477,7.3-4.628,7.3-1.044,0-4.042-1.955-5.02-2.607a1.733,1.733,0,0,0-.913-.456c-.652,0-.717.521-.717,1.174Zm-24.967-49.8c.783.392,2.542,1.239,2.542,2.282,0,.717-1.173.848-1.63.913-1.043.13-1.3.391-3.064,2.281-.521.521-1.043,1.108-1.759,1.826-1.826,1.89-10.43,9.191-12.842,9.191-2.346,0-5.345-4.3-5.345-5.8,0-.782.847-1.108,1.433-1.433,4.629-2.477,10.561-7.236,13.624-11.473.261-.391.587-.912,1.174-.912a16.239,16.239,0,0,1,3.651,1.825c.651.391,1.564.977,2.215,1.3m15.58,28.161c.391,0,.977-.065.977-.587,0-.326-.261-.456-.587-.782a59.916,59.916,0,0,1-7.04-7.04c-.521-.587-1.369-1.565-2.216-1.565-.978,0-1.695.847-2.282,1.5a91.352,91.352,0,0,1-7.105,7.105c-.2.2-.587.456-.587.848,0,.456.457.521,1.044.521Zm-18.382,14.21a1.783,1.783,0,0,0,1.825,1.826H37.063a1.823,1.823,0,0,0,1.826-1.826v-4.041a1.822,1.822,0,0,0-1.826-1.825H22.071a1.821,1.821,0,0,0-1.825,1.825ZM42.93,204.177a58.053,58.053,0,0,0,14.341,12.451c.782.521,1.174.717,1.174,1.3,0,1.565-2.869,6-4.954,6-2.542,0-18.122-14.21-18.122-16.035,0-.978,5.54-4.5,6.323-4.5a1.612,1.612,0,0,1,1.238.782" transform="translate(431.963 -474.343)" fill="#fff"/>
        <path id="パス_158" data-name="パス 158" d="M81.92,213.343c0-2.412-.13-6.453-.13-6.518,0-.978.717-1.108,1.5-1.108,1.108,0,7.954.326,8.735.521a.841.841,0,0,1,.782.782c0,.457-.391.587-.717.783a1.584,1.584,0,0,0-.977,1.759v15.318a158.75,158.75,0,0,1-.718,16.688,40.392,40.392,0,0,1-4.041,13.95,53.032,53.032,0,0,1-3.39,6,1.411,1.411,0,0,1-1.369.717c-1.564,0-7.3-2.282-7.3-4.564a2.424,2.424,0,0,1,.521-1.174c6.715-9.843,7.041-20.273,7.105-31.68Zm26.792,32.333c0,3,.2,6,.2,9,0,1.7-.717,1.825-3.585,1.825h-2.8c-2.672,0-3.259-.26-3.259-1.825,0-3,.2-6,.2-9v-29.79a42.947,42.947,0,0,0-.2-5.149c0-.2-.065-.392-.065-.587,0-.847.652-.913,1.3-.913,2.216,0,5.149.131,7.366.261.717,0,2.087,0,2.087.978,0,.391-.262.521-.587.848-.587.587-.652,2.868-.652,4.823Zm18.448,4.628c0,3.585.2,7.236.2,10.821,0,1.434-.651,1.7-1.956,1.7h-4.433c-2.933,0-3.454-.2-3.454-1.7,0-3.585.2-7.236.2-10.821V212.627a56.406,56.406,0,0,0-.2-6.062,2.437,2.437,0,0,1-.065-.652c0-.847.652-.912,1.3-.912,1.5,0,6.715.2,8.214.325.586,0,1.5.131,1.5.848,0,.456-.326.651-.652.912a2.337,2.337,0,0,0-.587,1.564c-.064.978-.064,5.606-.064,6.845Z" transform="translate(427.126 -474.449)" fill="#fff"/>
        <path id="パス_159" data-name="パス 159" d="M178.155,222.57c-2.087,0-4.238.065-6.323.065-1.369,0-1.5-.587-1.5-2.151v-1.956c0-1.63.065-2.347,1.434-2.347,2.151,0,4.3.131,6.388.131h3.65a.823.823,0,0,0,.848-.848v-.456a.724.724,0,0,0-.718-.718h-.913c-1.89,0-3.781.131-5.279.131-1.3,0-1.434-.521-1.434-2.151v-2.542c0-1.369.13-1.891,1.369-1.891,1.695,0,3.39.131,5.084.131a1.81,1.81,0,0,0,1.826-1.76c0-.2-.131-1.3-.131-1.825,0-.847.652-.847,1.3-.847,2.281,0,6.258.131,7.43.2.913.065,2.151.131,2.151.978,0,.456-.325.652-.651.978a1.181,1.181,0,0,0-.392.912c0,.717.457,1.369,1.63,1.369h2.934c1.564,0,3.194-.131,4.758-.131,1.957,0,3.325.262,3.325,2.608,0,1.434-.13,2.869-.13,4.367a1.3,1.3,0,0,0,1.238,1.369h.587c1.3,0,1.5.587,1.5,2.021v2.346c0,1.565-.2,2.087-1.5,2.087h-.391A1.434,1.434,0,0,0,204.816,224c0,1.434.13,2.933.13,4.433,0,2.216-1.238,2.607-3.194,2.607-1.63,0-3.259-.13-4.889-.13h-3.911a.863.863,0,0,0-.848.847v.13a.822.822,0,0,0,.848.847h4.367c2.151,0,4.3-.13,6.388-.13,1.369,0,1.5.651,1.5,2.282v2.15c0,1.565-.131,2.152-1.5,2.152-2.087,0-4.238-.131-6.388-.131h-4.367a.863.863,0,0,0-.848.847v.2a.809.809,0,0,0,.848.782h6.258c2.152,0,4.237-.065,6.388-.065,1.3,0,1.434.521,1.434,2.02v2.413c0,1.5-.131,2.086-1.434,2.086-2.151,0-4.237-.13-6.388-.13h-4.823c-2.087,0-2.152,1.238-2.152,3,0,1.89.392,2.672,2.413,2.672,3.846,0,8.213-.456,11.212-.456,2.021,0,2.413.977,2.413,2.8,0,1.76-.327,4.172-1.631,5.476a3.3,3.3,0,0,1-2.738.912H187.411c-9.908,0-17.274-.131-23.207-3.781a2.9,2.9,0,0,0-3.976.456c-.977,1.044-4.367,4.107-5.736,4.107-1.76,0-6-4.889-6-6.453,0-.521.718-1.108,2.152-2.086,1.369-.912,4.3-3.063,4.3-4.3a3.947,3.947,0,0,0-.717-1.89,42.082,42.082,0,0,1-3.129-6.975,26.86,26.86,0,0,1-1.173-3.976c0-1.825,5.671-2.477,7.04-2.477,1.174,0,1.3.456,1.695,1.695.456,1.433.912,2.737,1.3,3.715.13.326.261.521.587.521.651,0,.977-1.238,1.564-3.52a33.439,33.439,0,0,0,.847-4.889c0-.522-.587-.522-.978-.522h-1.108a2.063,2.063,0,0,0-1.825.978,2.284,2.284,0,0,1-1.825.913c-.978,0-7.171-1.043-7.171-2.869,0-.261,2.086-3.911,2.542-4.693.848-1.434,5.411-9.778,5.411-10.756,0-.782-.977-.782-2.086-.782h-1.5c-.977,0-2.282.2-2.934.2-1.3,0-1.433-.847-1.433-2.542v-3.651c0-2.087.13-2.8,1.433-2.8.587,0,1.631.2,2.934.2H164.6c2.412,0,2.738.392,4.693,2.216a2.1,2.1,0,0,1,.782,1.7c0,2.216-3.454,9.192-4.628,11.408a2.527,2.527,0,0,0-.391,1.107c0,.587.652.652,1.174.652h.326a4.614,4.614,0,0,1,3.585,1.37c1.173.977,1.956,1.694,1.956,3.258a10.062,10.062,0,0,1-.065,1.434c-.261,2.869-.456,5.15-.977,8.083a45.444,45.444,0,0,1-3.585,11.147,1.622,1.622,0,0,0-.262.847c0,.783.652,1.3,1.957,2.021,3.063,1.7,7.5,2.02,11.212,2.02,2.151,0,2.151-1.368,2.151-2.868,0-1.63-.391-2.607-2.216-2.607h-1.238c-2.086,0-4.237.13-6.323.13-1.37,0-1.5-.587-1.5-2.151v-2.347c0-1.433.13-2.02,1.5-2.02,2.086,0,4.237.065,6.323.065H181.8a.773.773,0,0,0,.848-.782v-.327a.724.724,0,0,0-.718-.717h-.847c-2.151,0-4.237.131-6.388.131-1.3,0-1.5-.587-1.5-1.956v-2.608c0-1.433.2-2.02,1.5-2.02,2.152,0,4.237.13,6.388.13h.847a.724.724,0,0,0,.718-.717v-.392a.724.724,0,0,0-.718-.717h-.913c-1.759,0-3.585.13-5.345.13-1.239,0-1.369-.521-1.369-2.02v-2.543c0-1.5.13-2.021,1.369-2.021,1.759,0,3.585.131,5.345.131h.913a.724.724,0,0,0,.718-.717v-.522a.773.773,0,0,0-.848-.782Zm17.469-6.258a.863.863,0,0,0,.847-.848v-.326a.822.822,0,0,0-.847-.848h-2.672a.822.822,0,0,0-.848.848v.326c0,.521.326.782.848.848Zm-2.672,6.258a.772.772,0,0,0-.848.782v.392a.863.863,0,0,0,.848.847h2.672a.863.863,0,0,0,.847-.847v-.392a.808.808,0,0,0-.847-.782Z" transform="translate(422.258 -474.353)" fill="#fff"/>
        <path id="パス_160" data-name="パス 160" d="M244.064,214.326c2.02,0,4.107-.13,6.127-.13,1.5,0,1.631.782,1.631,2.412v2.216c0,2.216-.065,2.672-2.216,2.672-1.108,0-2.869-.13-5.541-.13h-8.735c-2.021,0-4.107.13-6.128.13-1.3,0-1.63-.651-1.63-2.281V217.26c0-2.151,0-3.064,1.63-3.064,2.021,0,4.107.13,6.128.13Zm5.605,41.525c0,1.564.065,2.672.065,3.455,0,1.825-.456,1.956-3.715,1.956h-1.63c-2.281,0-2.542-.326-2.671-1.108-.131-.913-.2-.978-1.044-.978h-.717c-1.108,0-1.3,0-1.3,1.434,0,1.956-.261,1.956-3.586,1.956h-1.825c-2.738,0-3.454-.2-3.454-1.759,0-1.174.064-2.413.064-3.651v-9c0-1.5-.13-3-.13-4.5,0-2.412,1.5-2.869,3.585-2.869,1.564,0,3.064.2,4.563.2h4.564c1.564,0,2.738-.2,3.977-.2,2.02,0,3.454.521,3.454,2.869,0,1.5-.2,3-.2,4.5Zm-8.083-50.65c1.89,0,3.781-.131,5.671-.131,1.956,0,1.956.782,1.956,3.129v1.825c0,2.282-.13,2.869-1.956,2.869-1.89,0-3.781-.131-5.671-.131h-3.064c-1.89,0-3.781.131-5.671.131s-2.021-.718-2.021-2.543v-2.477c0-2.086.13-2.8,2.021-2.8s3.781.131,5.671.131Zm.456,17.73c1.826,0,3.651-.13,5.476-.13,1.565,0,1.7.847,1.7,2.542v2.282c0,1.76-.13,2.543-1.7,2.543-1.825,0-3.65-.131-5.476-.131H238c-2.477,0-4.107.131-5.149.131-1.63,0-2.021-.2-2.021-2.608v-1.695c0-2.086,0-3.063,1.695-3.063,1.825,0,3.65.2,5.476.13Zm0,9.126c2.477,0,4.041-.131,5.149-.131,1.891,0,2.021.457,2.021,2.869v1.63c0,2.151-.261,2.608-2.086,2.608-1.044,0-2.673-.131-5.085-.131H238c-2.477,0-4.042.131-5.149.131-1.7,0-2.021-.262-2.021-2.542v-2.151c0-1.63.13-2.413,1.695-2.413,1.825,0,3.65.131,5.476.131Zm-3.389,19.23a1.2,1.2,0,0,0,1.238,1.239h.521a1.254,1.254,0,0,0,1.3-1.239V248.81a1.3,1.3,0,0,0-1.3-1.239h-.521a1.237,1.237,0,0,0-1.238,1.239Zm28.681-35.722c0-.977,0-1.564-1.564-1.564h-.651c-1.044,0-1.174.456-1.174,1.369-.2,7.17-6.128,14.8-7.954,14.8-1.5,0-5.866-3.455-5.866-4.824a2.769,2.769,0,0,1,.913-1.5c2.737-2.8,4.041-4.954,4.563-8.931a42.02,42.02,0,0,0,.261-5.28c.065-3.259.065-4.3,3.259-4.3.913,0,1.826.065,2.738.065h8.6c.913,0,1.825-.065,2.738-.065,2.347,0,2.672.913,2.672,3.064,0,1.108-.065,2.216-.065,3.325v5.605c0,1.63,0,2.673.783,2.673h.261c.912,0,1.3-.717,1.564-5.15.065-.912.261-1.5,2.086-1.5,1.7,0,5.867.848,5.867,3.259a26.426,26.426,0,0,1-1.89,9c-1.369,2.8-4.172,2.868-6.91,2.868h-4.954c-4.107,0-5.345-1.63-5.345-5.606,0-1.433.064-2.8.064-4.237Zm4.367,15.579c2.8,0,5.28-.2,5.867-.2a5.021,5.021,0,0,1,3.455,1.564c.847.652,2.151,1.564,2.151,2.738,0,1.369-2.477,6.128-3.26,7.431a47.007,47.007,0,0,1-4.107,6.062,2.8,2.8,0,0,0-.717,1.369c0,.978,1.108,1.369,2.152,1.826a47.569,47.569,0,0,0,7.235,2.542c.782.2,2.021.522,2.021,1.5,0,1.108-2.542,6.779-4.693,6.779-.977,0-4.89-1.694-5.932-2.151a53.6,53.6,0,0,1-5.41-2.868,5.205,5.205,0,0,0-2.346-.913c-1.109,0-2.477.978-3.39,1.564-1.5.978-8.474,4.759-9.908,4.759-1.76,0-4.629-5.476-4.629-6.649,0-.977.978-1.174,1.695-1.434a44.188,44.188,0,0,0,6.454-3c1.5-.848,2.346-1.173,2.346-2.02,0-.718-.717-1.5-1.173-2.021-.718-.913-3.521-5.085-3.521-6.128,0-.651,1.108-.977,1.565-1.174.261-.13.848-.325.848-.651s-.391-.392-.718-.392c-1.433,0-2.933.131-4.367.131-1.369,0-1.63-.587-1.63-1.825v-3.912c0-2.542.2-3.063,1.63-3.063,1.826,0,3.846.13,5.867.13Zm-6.192,8.539c-.521,0-1.108.131-1.108.782,0,.457,2.021,4.107,3.129,4.107.912,0,3.194-3.389,3.194-4.3,0-.521-.391-.587-1.956-.587Z" transform="translate(417.071 -474.453)" fill="#fff"/>
        <path id="パス_161" data-name="パス 161" d="M309.243,230.19c0-1,.356-1.035,3.913-1.229.647-.033,1.39-.064,2.3-.13,4.074-.258,13.452-1.325,17.4-2.069a1.206,1.206,0,0,1,.324-.033c.581,0,.678.453.807,1.067a22.574,22.574,0,0,1,.421,3.59c0,.614-.356.614-1.746.646a13.19,13.19,0,0,0-4.624.582,10.048,10.048,0,0,0-6.694,9.443c0,3.072,1.617,3.912,4.463,3.912.808,0,1.875-.1,2.329-.1.614,0,.841.1.841.711a14.647,14.647,0,0,1-.55,3.782c-.259.648-.711.744-1.39.744-5.982,0-10.994-1.552-10.994-8.537a13.563,13.563,0,0,1,2.781-8.246.907.907,0,0,0,.193-.484c0-.292-.226-.486-.582-.486a11.57,11.57,0,0,0-1.745.292c-1.714.323-3.945.808-5.627,1.294a2.219,2.219,0,0,1-.452.064c-.679,0-.905-1.456-1.067-2.458a17.608,17.608,0,0,1-.292-2.36m21.471,5.368c.421.485,2.2,2.684,2.2,3.169,0,.648-1.745,1.649-2.07,1.649-.161,0-.226-.1-.646-.744-.615-.938-1.261-1.778-1.973-2.684a.552.552,0,0,1-.163-.356c0-.452,1.811-1.422,2.167-1.422.162,0,.356.226.485.388m6.435,1.2c0,.647-1.714,1.682-2.07,1.682-.226,0-.388-.292-.485-.453a25.117,25.117,0,0,0-2.07-2.813,1.021,1.021,0,0,1-.259-.486c0-.42,1.779-1.422,2.167-1.422a12.208,12.208,0,0,1,2.716,3.492" transform="translate(411.713 -475.874)" fill="#fff"/>
        <path id="パス_162" data-name="パス 162" d="M364.776,237.814a.694.694,0,0,1-.614.453c-.356,0-.453-.42-.582-.842-.162-.484-.518-1.552-.615-2-.032-.162-.1-.485-.291-.485s-.226.356-.259.485a36.326,36.326,0,0,1-1.261,5.854,2.04,2.04,0,0,0-.161.743,1.437,1.437,0,0,0,.614,1.132c.388.323,2.07,1.714,2.07,2.135,0,.743-1.714,3.2-2.458,3.2-.194,0-.744-.517-1.132-.9l-.291-.292c-.162-.162-.421-.42-.679-.42s-.485.42-.615.615c-.581,1.034-3.039,4.915-4.2,4.915-.712,0-3.3-1.488-3.3-2.264,0-.388.582-.905.841-1.163a20.1,20.1,0,0,0,2.781-3.59c.064-.1.162-.258.259-.42a4.131,4.131,0,0,0,.549-1.2c0-.259-.226-.388-.485-.388-.162,0-.292.161-.356.291a.638.638,0,0,1-.614.356c-.808,0-3.493-1-3.493-1.746a2.128,2.128,0,0,1,.162-.648c.356-1.1,2.134-6.952,2.134-7.76,0-.323-.258-.485-.582-.485h-.291c-.744,0-.808-.388-.808-1.422v-1.908c0-1.035.064-1.326.905-1.326.42,0,.873.032,1.1.032.744,0,.874-.518,1.2-3.913.129-1.228.162-1.518.549-1.518.291,0,2.328.388,2.878.484,1.52.259,1.941.324,1.941.744,0,.291-.259.452-.485.55-.486.193-.486.356-.583,1.2-.032.388-.1.874-.193,1.552,0,.1-.033.194-.033.292,0,.614.518.678,1,.678.518,0,1.034-.032,1.552-.032,1.132,0,1.844.292,1.844,1.552,0,.744-.064,1.455-.064,2.2a.624.624,0,0,0,.679.712c1.26,0,1.519-.1,1.778-.583.581-1.1,1.778-7.114,2.037-8.634.1-.484.129-.872.549-.872a43.709,43.709,0,0,1,4.334,1.034c.355.1.808.193.808.614a.378.378,0,0,1-.356.42c-.452.064-.549.129-.647.453-.582,1.907-1.229,3.815-1.844,5.723a2.712,2.712,0,0,0-.226.84c0,.194.162.454.615.454.194,0,1.617-.163,1.907-.194,1-.13,1.326-.13,1.326-.549a12.052,12.052,0,0,0-1.1-2.394,1.064,1.064,0,0,1-.162-.484c0-.486.581-.744,1.39-1.068a7.885,7.885,0,0,1,1.843-.518c.485,0,.712.356.938.776a44.963,44.963,0,0,1,2.07,4.366,4.909,4.909,0,0,0,.226.549,22.461,22.461,0,0,1,1.2,3.492c0,1.2-3.071,1.715-3.46,1.715-.549,0-.614-.42-.9-1.261-.194-.615-.42-.938-1.1-.938-.065,0-8.246,1.067-9.313,1.2-.259.032-.355.162-.518.42m-6.887-4.494c-.453,0-.549.549-.582.712-.129.776-.776,3.394-1,4.2a2.606,2.606,0,0,0-.1.485.863.863,0,0,0,.712.776c.356,0,.517-.42.808-1.81a27.733,27.733,0,0,0,.549-3.913c0-.258-.129-.452-.388-.452m6.144,9.635c0-.776-.065-1.487-.065-2.23,0-1.261,1.1-1.293,2.07-1.293,1,0,2.037.064,3.04.064h4.948c1,0,2.005-.064,3.008-.064.97,0,2.1.032,2.1,1.293,0,.678-.065,1.422-.065,2.23v6.112c0,1.1.065,2.426.065,2.975,0,.647-.356.712-1.39.712h-2.2c-.873,0-1.229-.065-1.229-.679v-.13c0-.388-.323-.485-.647-.485h-4.462c-.389,0-.582.194-.582.615,0,.614-.356.679-1.229.679H365.26c-.97,0-1.326-.065-1.326-.712,0-.744.1-1.844.1-2.975Zm4.5,3.557a.866.866,0,0,0,.905.906h4.074a.926.926,0,0,0,.906-.906v-1.875a.926.926,0,0,0-.906-.905h-4.074a.9.9,0,0,0-.905.905Z" transform="translate(409.007 -475.64)" fill="#fff"/>
        <path id="パス_163" data-name="パス 163" d="M412.582,226.046c.292.1.679.292.679.647a1.24,1.24,0,0,1-.194.582,4.593,4.593,0,0,0-.549,2.07c0,.549.549.743,1.132.905a9.319,9.319,0,0,1,7.082,9.377c0,5.53-3.653,8.958-8.343,11.221a4.911,4.911,0,0,1-2.005.648c-1.034,0-2.618-2.911-2.618-3.687,0-.322.258-.484,1.2-.776,3.363-1.034,7.049-3.686,7.049-7.567a4.955,4.955,0,0,0-3.751-4.948c-.42,0-.647.291-.744.744a24.88,24.88,0,0,1-4.171,9.345c-1.649,2.167-4.431,4.463-7.309,4.463-3.492,0-4.656-3.46-4.656-6.371a11.65,11.65,0,0,1,2.781-7.728,1.13,1.13,0,0,0,.388-.807,3.975,3.975,0,0,0-.258-.842c-.42-1.292-.809-2.586-1.229-3.88a2.384,2.384,0,0,1-.1-.647c0-.323.323-.518.647-.615a27.9,27.9,0,0,1,3.719-.873c.517,0,.582.42.776,1.519.065.389.13.841.226,1.39.065.388.194.776.679.776a1.178,1.178,0,0,0,.615-.194,15.764,15.764,0,0,1,2.975-.905c1.132-.194,1.164-.549,1.164-2.911,0-.355-.033-.711-.033-1.066,0-.421.065-.744.549-.744a33.743,33.743,0,0,1,4.3.873m-12.643,16.621c0,.485.065,1.745.776,1.745.42,0,1.488-.743,1.488-1.292a1.309,1.309,0,0,0-.162-.55c-.808-1.811-1.132-2.489-1.423-2.489-.549,0-.678,2.166-.678,2.586m4.818-7.5c-.356.194-.679.42-.679.905a13.817,13.817,0,0,0,.776,2.2c.1.194.226.356.452.356.389,0,.744-.873,1.035-1.778a13.82,13.82,0,0,0,.518-1.94.374.374,0,0,0-.389-.389,6.177,6.177,0,0,0-1.714.647" transform="translate(406.062 -475.772)" fill="#fff"/>
        <path id="パス_164" data-name="パス 164" d="M450.742,225.272c.161.032.452.064.452.323a1.108,1.108,0,0,1-.226.549,3.493,3.493,0,0,0-.518,2.037.706.706,0,0,0,.711.744c.582,0,3.719-.712,4.56-.905a7.73,7.73,0,0,1,1.326-.259c.452,0,.614.647.679,1a16.1,16.1,0,0,1,.355,2.749c0,.776-.388.9-1.422,1.1-1.617.292-3.3.549-4.948.776-.776.1-1.133.194-1.133.873,0,.452.227.808.712.808a29.129,29.129,0,0,0,3.427-.678,3.767,3.767,0,0,1,.808-.13c.259,0,.42.259.549.679a13.446,13.446,0,0,1,.227,3.1c0,1.034-1,1.164-3.978,1.488-1.293.128-1.552.291-1.552.872,0,1.779.033,2.038,1.035,2.361,1.358.452,5.69,2.3,5.69,3.816,0,.711-1.358,3.136-2.393,3.136a6.985,6.985,0,0,1-2.425-1.488,3.618,3.618,0,0,0-1.423-.776c-.452,0-.582.356-.744.711-1.034,2.523-3.622,3.234-6.144,3.234a7.263,7.263,0,0,1-3.945-1,4.631,4.631,0,0,1-2.037-3.816,4.441,4.441,0,0,1,1.843-3.557,8.781,8.781,0,0,1,5.012-1.326h.356a.638.638,0,0,0,.679-.712.769.769,0,0,0-.744-.873c-.582,0-2.587.163-4.01.163-1.23,0-1.552-.034-1.746-.906a12.8,12.8,0,0,1-.453-3.007c0-.485.065-.938.648-.938.937,0,2.328.162,3.88.162h.874c.808,0,1.422-.064,1.422-.776a.738.738,0,0,0-.776-.808c-1.1,0-3.072.129-4.593.129h-.97c-1.293,0-2.328-.033-2.522-.485a11.654,11.654,0,0,1-.356-3.4c0-.452.033-1,.648-1s4.01.291,6.144.291h.711c.776,0,1.359-.064,1.359-.744,0-.291-.162-2.1-.259-2.684a4.252,4.252,0,0,1-.1-.9c0-.388.226-.486.614-.486.615,0,3.881.42,4.69.55m-8.117,21.374c0,.776,1.2.808,1.746.808.873,0,1.94-.226,1.94-1.326,0-.452-.388-.485-1-.485-.648,0-2.685.064-2.685,1" transform="translate(403.336 -475.743)" fill="#fff"/>
        <path id="パス_165" data-name="パス 165" d="M485.165,228.183c.194.033.518.162.518.388,0,.194-.226.453-.356.615-.42.485-.518,1.519-.518,3.169,0,.323,0,1.034.679,1.034.323,0,3.137-.485,3.751-.582.582-.1.905-.323.905-.938a38.7,38.7,0,0,0-.549-5.077,3.689,3.689,0,0,1-.1-.582.467.467,0,0,1,.518-.485c.388,0,3.719.518,4.98.808.322.065.517.193.517.388,0,.13-.162.26-.356.453a4.765,4.765,0,0,0-.291,2.134v1c0,.129-.032.292-.032.453,0,.484.193.873.743.873.356,0,1.617-.163,2.231-.259a23.92,23.92,0,0,1,2.425-.323c.615,0,.809.193.809,2.619,0,2.652-.033,2.652-1.132,2.652H499.2c-.614,0-3.33.1-3.783.194-.549.128-.71.517-.776,1.132-.453,4.236-1.714,6.6-6.4,6.6-.518,0-.906-.032-1.164-.517a12.311,12.311,0,0,1-.615-3.461c0-.354.162-.678.582-.678.323,0,.647.033.97.033a1.537,1.537,0,0,0,1.714-1,4.3,4.3,0,0,0,.227-.874.456.456,0,0,0-.485-.452c-.194,0-.809.1-2.586.388-2.232.356-2.264.518-2.264,1.649v.389a29.14,29.14,0,0,0,.258,4.17c.486,1.812,2.1,1.876,4.139,1.876a38.1,38.1,0,0,0,5.756-.485c.227-.033.905-.13,1.132-.13.485,0,.615.42.615,1.617,0,1.391-.1,2.879-.42,3.2-.485.453-5.368.582-6.274.582a20.04,20.04,0,0,1-5.756-.679,5.789,5.789,0,0,1-3.556-3.557,22.851,22.851,0,0,1-.582-6.014c0-.486-.1-1.035-.744-1.035-.389,0-3.557.874-4.269,1.067a1.863,1.863,0,0,1-.42.064c-.453,0-.582-.193-.777-2.554-.064-.776-.13-1.617-.13-2.232,0-.808.356-.84,1.067-.84.615,0,3.2-.356,3.913-.453.841-.129,1.2-.356,1.2-1.229a41.785,41.785,0,0,0-.26-4.527c0-.162-.032-.388-.032-.549,0-.421.259-.582.647-.582.647,0,4.43.42,5.045.549" transform="translate(400.931 -475.808)" fill="#fff"/>
        <path id="パス_166" data-name="パス 166" d="M515.379,245.517A116.691,116.691,0,0,1,522.913,231c1.359-2.1,2.814-4.2,4.075-6.371.1-.193.194-.355.453-.355a17.284,17.284,0,0,1,2.878,1.94l.42.323c.615.452.971.743.971,1.034s-.194.42-.453.486c-.841.161-.841.322-1.488,1.131a47.933,47.933,0,0,0-3.363,4.689,1.213,1.213,0,0,0-.226.518.48.48,0,0,0,.421.42,2.437,2.437,0,0,0,.518-.1,4.977,4.977,0,0,1,1.164-.129c2.813,0,4.592,1.455,4.592,4.333a31.134,31.134,0,0,1-.776,4.819,7.056,7.056,0,0,0-.162,1.229c0,.323.162.647.549.647,1.133,0,4.171-3.654,4.915-4.624.55-.711.841-1.067,1.261-1.067.647,0,2.167,3.428,2.167,4.01,0,.614-2.134,2.586-2.652,3.071-1.973,1.778-4.4,3.654-7.179,3.654-2.619,0-3.719-2.2-3.719-4.528a20.86,20.86,0,0,1,.453-3.75,17.61,17.61,0,0,0,.323-2.394c0-.549-.194-.905-.776-.905a5.629,5.629,0,0,0-2.457.776,6.946,6.946,0,0,0-2.813,2.976,33.015,33.015,0,0,0-2.781,6.629c-.13.485-.259.97-.841.97a11.829,11.829,0,0,1-3.4-1.293c-.549-.292-.905-.452-.905-.744a29.856,29.856,0,0,1,1.293-2.878" transform="translate(398.274 -475.713)" fill="#fff"/>
        <path id="パス_167" data-name="パス 167" d="M568.917,226.1c.485.129.841.226.841.518,0,.226-.259.355-.485.452-.55.259-.679,1.132-.809,2.07l-.1.646c-.032.194-.064.356-.064.421a.659.659,0,0,0,.322.614,1.776,1.776,0,0,0,.776.163,6.02,6.02,0,0,1,2.716.678c2.134,1.2,2.684,3.2,2.684,5.53,0,2.878-.581,7.6-2.037,10.057-1.552,2.619-3.848,3.622-6.823,3.622-.938,0-1.358-.1-1.682-.906a12.565,12.565,0,0,1-.711-3.266c0-.42.162-.744.615-.744s.905.033,1.358.033c1.972,0,2.393-.163,3.072-1.39a18.459,18.459,0,0,0,1.455-7.146c0-1.519-.226-1.973-1.455-1.973-1.1,0-1.39.13-1.682,1.2a41.1,41.1,0,0,1-4.979,10.736,24.25,24.25,0,0,1-2.3,3.169.844.844,0,0,1-.55.227c-.711,0-3.815-1.714-3.815-2.782,0-.323.356-.679.647-.97A25.555,25.555,0,0,0,561.705,238a1.773,1.773,0,0,0,.162-.582.452.452,0,0,0-.517-.485,21.334,21.334,0,0,0-2.749.938,1.378,1.378,0,0,1-.614.193c-.549,0-.905-1.229-1.164-2.36-.162-.744-.485-2.037-.485-2.36,0-.485.355-.55,1.2-.615a31.918,31.918,0,0,0,4.98-.841c.647-.129,1-.355,1.1-1.067a43.946,43.946,0,0,0,.259-4.657v-.484c0-.323.064-.614.453-.614.323,0,3.978.872,4.592,1.034m8.634,2.651a27.417,27.417,0,0,1,2.522,3.267c.065.129.194.292.323.518.744,1.163,2.2,3.492,2.2,4.041,0,1.034-2.974,2.749-3.848,2.749-.452,0-.678-.517-.841-.873a27.3,27.3,0,0,0-4.494-7.276c-.129-.129-.356-.356-.356-.549,0-.744,2.717-2.49,3.525-2.49a1.385,1.385,0,0,1,.97.614" transform="translate(395.572 -475.765)" fill="#fff"/>
        <path id="パス_168" data-name="パス 168" d="M600.976,243.229c-.485,0-.614-.162-.614-.97,0-3.1,2.2-4.916,3.815-6.145.938-.711,1.714-1.423,1.714-2.393,0-1.26-1-1.908-2.716-1.908a5.847,5.847,0,0,0-4.138,1.778c-.291.292-.453.453-.647.453-.163,0-.324-.162-.615-.485l-2.1-2.522a1.246,1.246,0,0,1-.355-.678c0-.2.162-.39.485-.68a12.3,12.3,0,0,1,7.793-2.845c4.883,0,7.858,2.554,7.858,6.144,0,2.943-1.649,4.269-3.978,6.079a4.486,4.486,0,0,0-2.1,3.493c0,.581-.13.679-.582.679Zm5.206,4.592a3.161,3.161,0,0,1-3.363,3.33,2.822,2.822,0,0,1-2.975-2.845,3.2,3.2,0,0,1,3.3-3.46,2.924,2.924,0,0,1,3.04,2.975" transform="translate(392.945 -475.881)" fill="#fff"/>
      </g>
    </g>
  </g>
</svg>
