<svg xmlns="http://www.w3.org/2000/svg" xmlns:xlink="http://www.w3.org/1999/xlink" width="535.9" height="52.376" viewBox="0 0 535.9 52.376">
  <defs>
    <clipPath id="clip-path">
      <rect id="長方形_23" data-name="長方形 23" width="535.9" height="52.376" fill="#fff"/>
    </clipPath>
  </defs>
  <g id="グループ_34" data-name="グループ 34" transform="translate(0 0)">
    <g id="グループ_33" data-name="グループ 33" transform="translate(0 0)" clip-path="url(#clip-path)">
      <path id="パス_169" data-name="パス 169" d="M7.646,25.133c-1.153,0-2.306.059-3.46.059-.68,0-.74-.325-.74-1.242V22.176c0-.946.059-1.272.8-1.272,1.124,0,2.277.06,3.4.06H13.53a.827.827,0,0,0,.828-.828V18.3c0-1.3-.088-3.223-.088-3.549,0-.5.266-.62.71-.62s3.637.208,4.081.266c.236.029.5.118.5.444,0,.237-.148.325-.355.444-.414.237-.444.5-.444.946v3.9a.827.827,0,0,0,.828.828h5.944c1.153,0,2.306-.06,3.43-.06.739,0,.8.326.8,1.243v1.774c0,.946-.059,1.272-.769,1.272-1.153,0-2.306-.059-3.46-.059H20.184c-.325,0-.739.03-.739.474a7.634,7.634,0,0,0,.532,1.418,22.479,22.479,0,0,0,9.226,9.7c.474.265.68.354.68.68,0,.916-1.981,3.311-2.928,3.311a2.075,2.075,0,0,1-.8-.324,32.058,32.058,0,0,1-5.648-4.731,20.043,20.043,0,0,1-3.223-4.524c-.118-.237-.354-.562-.65-.562-.414,0-.65.592-.8.887A20.659,20.659,0,0,1,8.918,39c-.65.473-2.425,1.744-3.075,1.744-1.006,0-2.6-2.661-2.6-3.577,0-.414.3-.533.858-.8a17.778,17.778,0,0,0,9.314-10.054,2.372,2.372,0,0,0,.237-.74c0-.413-.5-.443-.8-.443ZM18.055,35.867c.088.089.207.237.384.414.65.709,1.863,2.01,1.863,2.395,0,.473-2.366,2.454-2.986,2.454-.267,0-.414-.266-.563-.444A30.41,30.41,0,0,0,13.767,37.2c-.148-.148-.533-.473-.533-.71,0-.5,1.6-1.626,2.011-1.951a1.549,1.549,0,0,1,.74-.414c.473,0,1.714,1.36,2.07,1.745" transform="translate(-0.377 -1.644)" fill="#fff"/>
      <path id="パス_170" data-name="パス 170" d="M42.82,19.644c0-1.035-.059-2.1-.059-3.134,0-1.331.828-1.6,1.981-1.6.68,0,1.36.059,2.07.059h.769c.68,0,1.36-.03,2.04-.03a2.027,2.027,0,0,1,1.952.858,1.715,1.715,0,0,1,.5,1.152c0,1.036-1.686,5.382-2.188,6.565a2.616,2.616,0,0,0-.148.444.922.922,0,0,0,.178.385,12.521,12.521,0,0,1,2.04,6.742c0,.355-.029.65-.029.769,0,.207.088.5.324.5.444,0,2.514-2.9,2.514-3.312,0-.325-.355-.384-.591-.384-.474,0-.976.059-1.449.059-.621,0-.68-.384-.68-1.124V26.445c0-.71.088-1.006.68-1.006.976,0,1.951.058,2.928.058h9.314c.946,0,1.922-.058,2.9-.058.591,0,.71.266.71.916V27.6c0,.828-.059,1.124-.74,1.124-.976,0-1.922-.059-2.868-.059H59.586c-.71,0-1.182.414-1.182.591s.354.266.5.266h5.086c.532,0,1.715-.058,2.425-.058,1.242,0,1.331.532,1.331,1.508a28.788,28.788,0,0,1-.976,6.978c-.769,2.189-1.744,2.78-4.11,2.78-.916,0-1.094-.06-1.33-.68a5.63,5.63,0,0,1-.3-1.567c0-.325-.118-.592-.325-.592-.237,0-.5.414-.68.621-.384.5-1.212,1.389-1.656,1.863a.8.8,0,0,1-.591.326c-.5,0-2.159-1.065-2.159-1.568,0-.207.208-.355.325-.474a20.115,20.115,0,0,0,3.49-3.785,9.832,9.832,0,0,0,1.182-1.951c0-.148-.118-.208-.3-.208-.266,0-.384.208-.5.444a22.328,22.328,0,0,1-4.022,4.82c-.354.326-1.508,1.391-1.893,1.391-.473,0-1.863-1.065-1.863-1.568,0-.178.207-.355.355-.444a29.733,29.733,0,0,0,4.169-4.228c.118-.148.148-.178.148-.236a.246.246,0,0,0-.267-.179c-.3,0-.591.355-.976.828-.473.592-2.957,3.254-3.637,3.254-.562,0-1.478-.947-1.834-1.361a1.558,1.558,0,0,0-1.153-.474c-.266,0-.532.03-.8.03-.237,0-.473-.03-.71-.03a.833.833,0,0,0-.828.917c0,1.419.088,2.838.088,4.258,0,.769-.266.827-1.064.827H44c-1,0-1.242-.058-1.242-.857,0-1.478.059-2.986.059-4.465Zm3.726,2.1c0,.148.029.238.148.238.266,0,.8-2.366.8-2.75,0-.326-.207-.414-.5-.414a.424.424,0,0,0-.444.384Zm0,8.458a.662.662,0,0,0,.651.74c.561,0,.65-.5.65-1.331,0-1.39-.473-3.726-1.034-3.726-.208,0-.267.325-.267.473ZM62.158,14.794c.8,0,1.6-.059,2.4-.059s1.389.148,1.389,1.094c0,.592-.058,1.183-.058,1.774v4.11c0,.68.058,1.3.058,1.8,0,.917-.561,1.094-1.36,1.094s-1.6-.058-2.425-.058H57.28c-.8,0-1.6.058-2.366.058-.828,0-1.419-.148-1.419-1.094,0-.473.059-1,.059-1.8V17.6c0-.8-.059-1.3-.059-1.774,0-.946.591-1.094,1.39-1.094s1.6.059,2.395.059Zm-.207,3.076a.328.328,0,0,0-.325-.326H57.812a.329.329,0,0,0-.325.326v.177a.328.328,0,0,0,.325.325h3.815a.31.31,0,0,0,.325-.325Zm0,3.429a.349.349,0,0,0-.354-.384H57.871a.372.372,0,0,0-.384.384v.118a.367.367,0,0,0,.384.356H61.6a.342.342,0,0,0,.354-.356Zm1.6,11.8c-.148,0-.237.207-.266.3a19.376,19.376,0,0,1-1.419,2.543,1.223,1.223,0,0,0-.237.532c0,.118.118.384.621.384.828,0,1.006-.325,1.182-1.182a16.563,16.563,0,0,0,.3-2.4c0-.029-.059-.178-.178-.178" transform="translate(-4.974 -1.714)" fill="#fff"/>
      <path id="パス_171" data-name="パス 171" d="M85.853,39.356A10.147,10.147,0,0,1,82.9,40.686c-1.065,0-2.425-2.425-2.425-3.164,0-.444.414-.562.769-.68,2.987-1.036,5.5-2.958,6.416-6.033a10.146,10.146,0,0,0,.384-2.07c0-.769-.531-.8-1.153-.8H84.374c-.975,0-1.981.088-2.9.088-.561,0-.62-.355-.62-1.3v-1.6c0-.886.059-1.242.62-1.242.8,0,1.864.088,2.9.088h6.653a.845.845,0,0,0,.828-.827v-6a17.974,17.974,0,0,0-.089-2.277,1.019,1.019,0,0,1-.029-.3c0-.385.266-.444.591-.444a6.317,6.317,0,0,1,.74.058c1.065.089,2.129.178,3.194.3.236.029.591.089.591.414,0,.206-.118.266-.325.473a2.4,2.4,0,0,0-.3,1.508c0,.444.029.917.029,1.361v4.909a.826.826,0,0,0,.828.827h6.476c1.065,0,2.1-.088,2.9-.088.533,0,.592.355.592,1.036v1.951c0,.857-.059,1.153-.592,1.153-.916,0-1.922-.088-2.9-.088h-4.14a.845.845,0,0,0-.828.827V35.1c0,.858.059,1.183,1.036,1.183h1.774c1.153,0,1.39-.71,1.656-2.572.089-.563.208-.887.858-.887a5.553,5.553,0,0,1,2.513.768,1.193,1.193,0,0,1,.71,1.095,11.43,11.43,0,0,1-1.065,4.052c-.768,1.448-2.129,1.656-3.637,1.656H97.977c-2.218,0-3.666-.148-3.666-2.721,0-.8.029-1.627.029-2.426V28.769a.845.845,0,0,0-.827-.827h-.444c-.118,0-.414,0-.414.177a.275.275,0,0,0,.148.207c.148.118.325.3.325.474,0,.3-.325.384-.533.474-.207.058-.266.207-.3.413a12.714,12.714,0,0,1-6.446,9.67m2.987-21.7a24.947,24.947,0,0,1,1.626,4.081c0,.858-2.779,1.715-3.341,1.715-.384,0-.474-.237-.887-1.331-.089-.237-.207-.532-.325-.857a39.124,39.124,0,0,0-1.863-3.9,2.255,2.255,0,0,1-.237-.621c0-.562,2.779-1.656,3.223-1.656.651,0,.946.8,1.8,2.572m15.11-1.242c.769.354,1.212.68,1.212.976,0,.326-.5.355-.739.414a.8.8,0,0,0-.474.5c-.354.828-2.572,5.352-3.341,5.352-.414,0-3.164-1.448-3.164-2.129a3.378,3.378,0,0,1,.5-.887,22.491,22.491,0,0,0,2.484-5.174c.059-.148.118-.356.3-.356a21.37,21.37,0,0,1,3.223,1.3" transform="translate(-9.361 -1.644)" fill="#fff"/>
      <path id="パス_172" data-name="パス 172" d="M130.5,28.567a4.188,4.188,0,0,1-4.406,4.465,3.776,3.776,0,0,1-3.962-3.844,4.149,4.149,0,0,1,4.435-4.347,3.691,3.691,0,0,1,3.933,3.726" transform="translate(-14.207 -2.89)" fill="#fff"/>
      <path id="パス_173" data-name="パス 173" d="M154,18.618c-.384,0-.858.088-.858.562,0,.118.03.236.03.384,0,.651-.267.71-1.361.71h-1.626c-1.006,0-1.272-.059-1.272-.71v-.354c0-.473-.384-.591-.769-.591h-.858c-1.182,0-2.395.029-3.577.029-.71,0-.769-.178-.769-.887V16.725c0-.71.058-.887.769-.887,1.212,0,2.395.059,3.577.059h.946c.355,0,.71-.088.71-.532,0-.148-.059-.561-.059-.74,0-.3.325-.325.561-.325.68,0,2.868.178,3.637.237.207.029.65.059.65.354,0,.118-.177.237-.3.325a.3.3,0,0,0-.178.3c0,.3.237.384.473.384h4.79c.355,0,.651-.148.651-.562,0-.118-.059-.473-.059-.62,0-.3.354-.325.591-.325.591,0,2.6.148,3.282.207.533.029,1.124.029,1.124.354,0,.148-.178.266-.3.326-.118.088-.178.148-.178.3,0,.325.326.325.533.325h.886c1.183,0,2.366-.059,3.549-.059.739,0,.8.178.8.917V17.82c0,.649-.089.827-.769.827-1.212,0-2.4-.029-3.579-.029h-.827c-.562,0-.71.3-.71.532,0,.088.029.237.029.414,0,.651-.3.71-1.419.71h-1.656c-1.035,0-1.331-.059-1.331-.71,0-.148.03-.3.03-.414,0-.237-.208-.532-.74-.532ZM145.4,31.333a.328.328,0,0,1-.325.178c-.3,0-.414-.3-.8-1.361a10.029,10.029,0,0,1-.561-1.922c0-.3.236-.3.5-.3h1.448c1.094,0,2.218.03,3.341.03.148,0,.5,0,.5-.267,0-.148-.177-.177-.444-.265a22.8,22.8,0,0,0-2.808-.71c-.208-.06-.622-.119-.622-.385,0-.354.917-2.276,1.893-2.276a9.762,9.762,0,0,1,1.715.444,1.065,1.065,0,0,0,.3.058c.473,0,.739-.561.739-.68,0-.266-.354-.266-.561-.266h-2.07c-1.153,0-2.306.059-3.46.059-.68,0-.74-.208-.74-.946V21.663c0-.68.059-.887.74-.887,1.153,0,2.306.06,3.46.06h5.53c.591,0,.8-.355.8-.68,0-.178-.088-.68-.088-.8,0-.325.354-.355.591-.355.62,0,2.868.148,3.578.237.562.059.887.059.887.325,0,.118-.089.208-.3.325-.148.118-.266.208-.266.414,0,.533.5.533.74.533h5.588c1.153,0,2.306-.06,3.46-.06.68,0,.74.208.74.887v1.094c0,.74-.059.917-.74.917-1.153,0-2.306-.059-3.46-.059h-3.075c-.237,0-.444,0-.444.118,0,.148.148.237.266.3.3.118.5.207.5.414,0,.325-.355.354-.591.354a.808.808,0,0,0-.74.325c-.8.68-1.6,1.36-2.454,1.981a.4.4,0,0,0-.207.326c0,.236.236.3.444.3.591,0,2.129-.06,2.779-.089.207,0,.562-.029.562-.3,0-.207-.178-.354-.533-.71a.484.484,0,0,1-.236-.354c0-.533,2.217-1.479,2.72-1.479a.882.882,0,0,1,.533.237,24.891,24.891,0,0,1,2.1,2.217,22.226,22.226,0,0,1,2.218,2.987c0,.621-2.366,1.478-2.927,1.478-.267,0-.3-.118-.444-.324-.5-.8-.74-1.272-1.8-1.272-.3,0-4.435.325-5.2.354-4.081.267-8.191.384-12.272.474-.267.058-.267.118-.5.384m6.269,8.84c-.355,0-.5.208-.5.444v.118c0,.414-.384.474-1.626.474h-1.952c-.473,0-.8-.088-.8-.474,0-.266.088-1.123.088-1.833V34.259c0-.65-.059-1.094-.059-1.538,0-1.093.828-1.242,1.744-1.242s1.834.03,2.75.03h9.906c.917,0,1.834-.03,2.721-.03.916,0,1.744.148,1.744,1.242,0,.384-.029.887-.029,1.538V38.9c0,.74.088,1.656.088,1.833,0,.414-.384.474-1.656.474h-1.951c-.8,0-.8-.3-.8-.561a.474.474,0,0,0-.5-.475Zm2.306-5.44a.336.336,0,0,0,.325-.355V34.23a.328.328,0,0,0-.325-.325H151.4a.328.328,0,0,0-.325.325v.148a.353.353,0,0,0,.325.355Zm-.059,3.075a.391.391,0,0,0,.384-.384v-.088a.392.392,0,0,0-.384-.385H151.43a.367.367,0,0,0-.355.385v.088a.386.386,0,0,0,.355.384Zm1.626-14.194c-.236,0-.265.059-.3.3a.392.392,0,0,1-.354.208h-.237c-.3,0-.533.266-.887.59-.178.179-.355.385-.591.592a.453.453,0,0,0-.208.355c0,.444.74.591.946.591.414,0,.533-.177.8-.414.532-.5,1.035-1.036,1.538-1.567a.644.644,0,0,0,.266-.414c0-.089-.059-.237-.414-.237ZM161.1,34.733a.353.353,0,0,0,.326-.355V34.23a.329.329,0,0,0-.326-.325h-2.6a.328.328,0,0,0-.325.325v.148a.336.336,0,0,0,.325.355Zm-2.542,2.217a.392.392,0,0,0-.384.385v.088a.391.391,0,0,0,.384.384h2.484a.373.373,0,0,0,.384-.384v-.088c0-.237-.148-.355-.384-.385Z" transform="translate(-16.628 -1.663)" fill="#fff"/>
      <path id="パス_174" data-name="パス 174" d="M197.427,17.635a.374.374,0,0,0-.384.385v.087a.368.368,0,0,0,.384.356h6.742c.769,0,1.538-.06,2.277-.06,1.124,0,1.36.148,1.36,1.095V22.75c0,.5.059,1.035.059,1.39,0,.591-.355.65-1.153.65H205c-.828,0-1.182-.059-1.182-.65,0-.355.058-.828.058-1.39v-.916a.794.794,0,0,0-.8-.8h-5.2a.826.826,0,0,0-.828.827V23.7c0,1.034.089,2.187.089,3.074,0,.68-.354.769-1.242.769h-2.04c-.887,0-1.212-.088-1.212-.8,0-.828.088-1.922.088-3.045V21.863a.826.826,0,0,0-.828-.827h-5.263a.84.84,0,0,0-.828.8v.916c0,.5.059,1.035.059,1.39,0,.591-.355.65-1.183.65h-1.714c-.8,0-1.153-.059-1.153-.65,0-.355.058-.828.058-1.39V19.528c0-.946.178-1.124,1.331-1.124.769,0,1.538.06,2.306.06h6.831a.367.367,0,0,0,.384-.356V18.02a.392.392,0,0,0-.384-.385h-3.46c-1.094,0-2.188.06-3.312.06-.621,0-.68-.208-.68-.829V15.831c0-.65.059-.827.71-.827,1.094,0,2.188.058,3.282.058h11.976c1.095,0,2.188-.058,3.283-.058.65,0,.71.177.71.827v1.035c0,.621-.059.829-.68.829-1.094,0-2.188-.06-3.312-.06ZM196.6,40.818c-2.217,0-3.636-.207-3.636-2.809v-.148c0-.71-.414-1.006-.857-1.006H189.3c-.532,0-.739.029-.739.355,0,.68-.237.739-1.42.739h-1.478c-.71,0-1.124-.059-1.124-.828,0-.857.059-1.744.059-2.632V31.651c0-.8-.03-1.625-.03-2.425,0-.946.178-1.123,1.183-1.123h18.629c1.036,0,1.124.267,1.124,1.123v4.909c0,.74.088,1.006.8,1.036.59.029,2.336.384,2.336,1.331a7.191,7.191,0,0,1-1.153,3.164c-.71,1.065-1.508,1.153-2.691,1.153Zm-7.037-18.895c.62,0,1.33-.06,1.715-.06.443,0,.473.237.473.74v.8c0,.561-.059.739-.532.739-.326,0-1.006-.059-1.656-.059H188.7c-.65,0-1.36.059-1.656.059-.532,0-.561-.207-.561-.769v-.828c0-.562.118-.68.561-.68.326,0,.8.06,1.478.06Zm0,3.045c.62,0,1.33-.029,1.715-.029.443,0,.473.236.473.739v.74c0,.621-.03.8-.532.8-.326,0-1.006-.058-1.656-.058H188.7c-.65,0-1.36.058-1.656.058-.532,0-.561-.237-.561-.828v-.828c0-.532.118-.649.532-.649.3,0,.769.058,1.478.058Zm3.045,6.417a.392.392,0,0,0,.384-.385v-.058a.392.392,0,0,0-.384-.385H188.97a.367.367,0,0,0-.354.385V31a.367.367,0,0,0,.354.385Zm-3.666,2.158a.335.335,0,0,0-.325.354v.148a.329.329,0,0,0,.325.326h3.726a.329.329,0,0,0,.325-.326V33.9a.318.318,0,0,0-.325-.354Zm12.153-2.158a.392.392,0,0,0,.384-.385v-.058a.392.392,0,0,0-.384-.385h-3.726a.392.392,0,0,0-.384.385V31a.392.392,0,0,0,.384.385Zm-3.785,2.158a.335.335,0,0,0-.325.354v.148a.329.329,0,0,0,.325.326h3.815a.336.336,0,0,0,.354-.326V33.9a.342.342,0,0,0-.354-.354Zm.207,3.312a.468.468,0,0,0-.474.473c0,.5.651.562,1.036.562H203.7c.354,0,1-.029,1-.532,0-.414-.325-.474-.71-.474H203.9c-.946,0-1.922-.029-2.9-.029Zm3.519-14.932c.621,0,1.361-.06,1.715-.06.473,0,.5.237.5.769v.829c0,.5-.059.68-.533.68-.324,0-1-.059-1.685-.059h-.887c-.65,0-1.331.059-1.656.059-.5,0-.532-.207-.532-.8v-.768c0-.592.118-.71.591-.71.3,0,.769.06,1.419.06Zm0,3.045c.621,0,1.361-.029,1.715-.029.473,0,.5.236.5.739v.8c0,.562-.03.739-.533.739-.324,0-1-.058-1.685-.058h-.887c-.65,0-1.331.058-1.656.058-.5,0-.532-.237-.532-.8v-.828c0-.592.118-.68.591-.68.3,0,.74.058,1.39.058Z" transform="translate(-21.15 -1.745)" fill="#fff"/>
      <path id="パス_175" data-name="パス 175" d="M227.988,29.093c.325.236,1.39.946,1.39,1.36,0,.769-3.874,7.273-4.554,8.279a1.71,1.71,0,0,0-.414.976v.354c0,.267-.029.65-.354.65a10.272,10.272,0,0,1-2.1-1.656c-.71-.62-1.36-1.123-1.36-1.567,0-.266.237-.5.384-.68a36.612,36.612,0,0,0,5.086-8.367c.059-.179.148-.3.355-.3.414,0,1.182.65,1.567.946m-2.04-6.565c.533.355,1.686,1.242,1.686,1.685,0,.562-1.568,2.838-2.218,2.838a7.492,7.492,0,0,1-1.744-1.242,23.531,23.531,0,0,0-2.425-1.774c-.237-.148-.562-.3-.562-.62,0-.354,1.568-2.809,2.159-2.809a17.038,17.038,0,0,1,3.1,1.922m1.656-6.121c.355.266,1.39,1.006,1.39,1.42,0,.531-.916,1.567-1.272,1.98-.237.3-.591.829-1.006.829-.236,0-.532-.267-.709-.414-1.007-.8-1.923-1.449-2.958-2.159-.444-.3-.74-.444-.74-.769a7.978,7.978,0,0,1,1.154-1.863c.118-.148.177-.266.236-.325.208-.3.474-.62.858-.62.562,0,2.542,1.508,3.045,1.921m12.508,13.455c0,1.389.089,2.749.089,4.14,0,.709-.326.769-1.242.769h-1.685c-.887,0-1.183-.06-1.183-.74,0-1.389.088-2.78.088-4.169V27.29c0-.325,0-.769-.444-.769a2.2,2.2,0,0,0-1.272.531,1.361,1.361,0,0,0-.236,1.007v6.771c0,1.331.088,1.479,1.153,1.479h6.269c.8,0,1.6-.059,1.834-2.01.088-.622.059-.918.68-.918a10.531,10.531,0,0,1,2.543.533c.621.207.858.414.858,1.065A8.222,8.222,0,0,1,246.085,39c-.946,1.3-1.951,1.3-3.46,1.3H234.79c-2.4,0-4.524-.5-4.524-3.4,0-.829.03-1.656.03-2.484V29.359c0-.3,0-.739-.355-.739-.088,0-.325.058-.532.058-.267,0-.414-.3-.533-.562a12.251,12.251,0,0,1-.887-2.661c0-.473.474-.533,1.242-.769.976-.326,1.065-.533,1.065-1.538V20.813c0-.71,0-1.449-.059-2.04a.9.9,0,0,1-.03-.266c0-.414.3-.414.621-.414.5,0,2.779.088,3.312.118.236.03.62.089.62.414,0,.208-.118.266-.266.414a2.94,2.94,0,0,0-.266,1.627v1.242c0,.385,0,.858.414.858a3.2,3.2,0,0,0,1.242-.473,1.251,1.251,0,0,0,.3-1.036V17.384a18.889,18.889,0,0,0-.088-2.336c0-.088-.029-.207-.029-.3,0-.354.3-.384.561-.384.976,0,2.159.058,3.135.118.3,0,.916,0,.916.413,0,.179-.118.267-.267.414a.944.944,0,0,0-.266.68c-.029.414-.029,2.01-.029,2.513v1.419c0,.325.029.71.473.71a16.256,16.256,0,0,0,1.952-.622,4.185,4.185,0,0,1,1.331-.325,3.253,3.253,0,0,1,2.01,1.242,2.186,2.186,0,0,1,.414,1.6c0,2.425-.059,4.82-.118,7.215a3.749,3.749,0,0,1-.444,2.011c-.8,1.242-2.4,1.567-4.022,1.567-.65,0-1.272-.148-1.272-2.928,0-.384.029-.976.562-.976.207,0,.414.058.68.058.326,0,.355-.118.384-.59.059-1.183.118-2.691.118-3.815,0-.3,0-.65-.384-.65a3.161,3.161,0,0,0-1.36.5,1.142,1.142,0,0,0-.325,1.006Z" transform="translate(-25.662 -1.671)" fill="#fff"/>
      <path id="パス_176" data-name="パス 176" d="M261.654,20.073c4.317-.266,8.634-.71,12.922-1.212,2.247-.266,4.494-.562,6.712-.916a1.656,1.656,0,0,1,.384-.03c.444,0,.5.384.561.739a13.454,13.454,0,0,1,.267,2.16c0,.65-.621.591-1.331.62a14.665,14.665,0,0,0-4.909.621,8.98,8.98,0,0,0-5.026,4.405,11.073,11.073,0,0,0-1.42,5.2c0,3.43,2.189,4.258,5.2,4.258.5,0,1.153-.029,1.478-.029.444,0,.68.029.68.5a8.389,8.389,0,0,1-.444,2.425c-.208.444-.444.5-.946.5-5.027,0-9.344-1.6-9.344-7.363a13.136,13.136,0,0,1,3.252-8.487c.326-.355.5-.561.5-.71,0-.266-.236-.355-.444-.355s-1.567.237-1.863.266c-1.981.3-4.642.71-6.535,1.212a2.24,2.24,0,0,1-.444.06c-.414,0-.562-.651-.65-.976a13.228,13.228,0,0,1-.325-2.129c0-.769.414-.68,1.715-.769m19.634,7.215c0,.444-1.183,1.242-1.508,1.242-.207,0-.3-.207-.414-.354-.592-.858-1.242-1.686-1.893-2.484-.088-.088-.266-.267-.266-.414,0-.354,1.182-1.094,1.508-1.094a11.449,11.449,0,0,1,2.572,3.105m3.578-1.627c0,.414-1.153,1.242-1.508,1.242-.207,0-.325-.236-.443-.384a25.123,25.123,0,0,0-1.923-2.455.7.7,0,0,1-.207-.384c0-.355,1.153-1.124,1.508-1.124a12.022,12.022,0,0,1,2.573,3.105" transform="translate(-30.238 -2.084)" fill="#fff"/>
      <path id="パス_177" data-name="パス 177" d="M312.84,17.635a.374.374,0,0,0-.384.385v.087a.368.368,0,0,0,.384.356h6.742c.769,0,1.538-.06,2.277-.06,1.124,0,1.36.148,1.36,1.095V22.75c0,.5.059,1.035.059,1.39,0,.591-.355.65-1.153.65H320.41c-.828,0-1.182-.059-1.182-.65,0-.355.058-.828.058-1.39v-.916a.794.794,0,0,0-.8-.8h-5.2a.826.826,0,0,0-.828.827V23.7c0,1.034.089,2.187.089,3.074,0,.68-.354.769-1.242.769h-2.04c-.887,0-1.212-.088-1.212-.8,0-.828.088-1.922.088-3.045V21.863a.826.826,0,0,0-.828-.827h-5.263a.84.84,0,0,0-.828.8v.916c0,.5.059,1.035.059,1.39,0,.591-.355.65-1.183.65h-1.714c-.8,0-1.153-.059-1.153-.65,0-.355.058-.828.058-1.39V19.528c0-.946.178-1.124,1.331-1.124.769,0,1.538.06,2.306.06h6.831a.367.367,0,0,0,.384-.356V18.02a.392.392,0,0,0-.384-.385h-3.46c-1.094,0-2.188.06-3.312.06-.621,0-.68-.208-.68-.829V15.831c0-.65.059-.827.71-.827,1.094,0,2.188.058,3.282.058H316.27c1.095,0,2.188-.058,3.283-.058.65,0,.71.177.71.827v1.035c0,.621-.059.829-.68.829-1.094,0-2.188-.06-3.312-.06Zm-.828,23.183c-2.217,0-3.636-.207-3.636-2.809v-.148c0-.71-.414-1.006-.857-1.006h-2.81c-.532,0-.739.029-.739.355,0,.68-.237.739-1.42.739h-1.478c-.71,0-1.124-.059-1.124-.828,0-.857.059-1.744.059-2.632V31.651c0-.8-.03-1.625-.03-2.425,0-.946.178-1.123,1.183-1.123h18.629c1.036,0,1.124.267,1.124,1.123v4.909c0,.74.088,1.006.8,1.036.59.029,2.336.384,2.336,1.331a7.191,7.191,0,0,1-1.153,3.164c-.71,1.065-1.508,1.153-2.691,1.153Zm-7.037-18.895c.62,0,1.33-.06,1.715-.06.443,0,.473.237.473.74v.8c0,.561-.059.739-.532.739-.326,0-1.006-.059-1.656-.059h-.858c-.65,0-1.36.059-1.656.059-.532,0-.561-.207-.561-.769v-.828c0-.562.118-.68.561-.68.326,0,.8.06,1.478.06Zm0,3.045c.62,0,1.33-.029,1.715-.029.443,0,.473.236.473.739v.74c0,.621-.03.8-.532.8-.326,0-1.006-.058-1.656-.058h-.858c-.65,0-1.36.058-1.656.058-.532,0-.561-.237-.561-.828v-.828c0-.532.118-.649.532-.649.3,0,.769.058,1.478.058Zm3.045,6.417A.392.392,0,0,0,308.4,31v-.058a.392.392,0,0,0-.384-.385h-3.637a.367.367,0,0,0-.354.385V31a.367.367,0,0,0,.354.385Zm-3.666,2.158a.335.335,0,0,0-.325.354v.148a.329.329,0,0,0,.325.326h3.726a.329.329,0,0,0,.325-.326V33.9a.318.318,0,0,0-.325-.354Zm12.153-2.158a.392.392,0,0,0,.384-.385v-.058a.392.392,0,0,0-.384-.385h-3.726a.392.392,0,0,0-.384.385V31a.392.392,0,0,0,.384.385Zm-3.785,2.158a.335.335,0,0,0-.325.354v.148a.329.329,0,0,0,.325.326h3.815a.336.336,0,0,0,.354-.326V33.9a.342.342,0,0,0-.354-.354Zm.207,3.312a.468.468,0,0,0-.474.473c0,.5.651.562,1.036.562h5.618c.354,0,1-.029,1-.532,0-.414-.325-.474-.71-.474h-.088c-.946,0-1.922-.029-2.9-.029Zm3.519-14.932c.621,0,1.361-.06,1.715-.06.473,0,.5.237.5.769v.829c0,.5-.059.68-.533.68-.324,0-1-.059-1.685-.059h-.887c-.65,0-1.331.059-1.656.059-.5,0-.532-.207-.532-.8v-.768c0-.592.118-.71.591-.71.3,0,.769.06,1.419.06Zm0,3.045c.621,0,1.361-.029,1.715-.029.473,0,.5.236.5.739v.8c0,.562-.03.739-.533.739-.324,0-1-.058-1.685-.058h-.887c-.65,0-1.331.058-1.656.058-.5,0-.532-.237-.532-.8v-.828c0-.592.118-.68.591-.68.3,0,.74.058,1.39.058Z" transform="translate(-34.576 -1.745)" fill="#fff"/>
      <path id="パス_178" data-name="パス 178" d="M357.167,16.582c1.124,0,2.218-.059,3.341-.059.68,0,.74.237.74,1.035v1.213c0,.8-.059,1.034-.71,1.034-1.123,0-2.247-.059-3.371-.059H344.008c-.886,0-1.271.414-1.271.621,0,.178.088.208.532.208.68,0,1.36.058,2.07.058h9.433c.887,0,1.744-.058,2.6-.058.592,0,.711.236.711.857V22.7c0,.621-.118.857-.68.857-.887,0-1.744-.03-2.632-.03h-9.433c-.887,0-1.744.03-2.632.03-.68,0-.68-.355-.68-1.094V22.2c0-.177,0-.531-.266-.531-.178,0-.325.207-.443.354-.414.473-2.159,2.307-2.721,2.307-.474,0-2.809-1.3-2.809-2.1,0-.3.444-.562.739-.829a18.693,18.693,0,0,0,5.2-7.008c.118-.3.178-.561.473-.561.444,0,3.046.71,3.666.857.3.089.917.208.917.533,0,.266-.414.384-.621.444-.266.088-.769.3-.769.65,0,.207.178.266.325.266Zm-8.575,11.266c-.088,0-.473,0-.473.178a10.647,10.647,0,0,0,1.863,1.094c.3.148,1.182.562,1.182.917,0,.236-.266.325-.473.325-.414.029-.5.029-.71.444-.3.532-.651,1.152-1.006,1.656a1.306,1.306,0,0,0-.325.709c0,.444.621.858.946,1.066.532.354,1.774,1.242,2.247,1.625.207.179.444.355.444.68,0,.532-1.006,3.046-2.247,3.046a1.549,1.549,0,0,1-.916-.532c-1.036-.858-2.07-1.774-2.662-2.247a1.083,1.083,0,0,0-.71-.326.727.727,0,0,0-.532.3c-.71.74-5.53,4.082-6.387,4.082-.77,0-2.426-2.572-2.426-3.134,0-.325.444-.473.71-.591.68-.3,4.731-2.425,4.731-3.046,0-.5-2.573-1.42-3.046-1.6-.3-.089-.68-.237-.68-.591,0-.562,1.686-2.632,2.247-2.632a16.716,16.716,0,0,1,3.52,1.449,1.45,1.45,0,0,0,.769.3c.444,0,.739-.562.976-.976a6.4,6.4,0,0,0,.8-1.716c0-.444-.414-.473-.739-.473H342.2c-1.242,0-2.513.059-3.785.059-.384,0-.71-.118-.71-.8V25.572c0-.858.059-1.154.739-1.154,1.272,0,2.514.089,3.756.089h12.508c.887,0,1.744-.059,2.6-.059,1.182,0,1.419.384,1.419,1.508,0,1.035-.089,3.726-.089,5.559a32.817,32.817,0,0,0,.237,4.17c.03.207.059.68.325.68.532,0,.68-2.572.68-3.016.029-.533.207-.71.8-.71.828,0,2.247.444,2.247,1.419a11.055,11.055,0,0,1-.118,1.331c-.325,2.336-1.006,5.618-3.992,5.618-1.922,0-2.987-1.094-3.549-2.838a30.954,30.954,0,0,1-1-9.2v-.236a.824.824,0,0,0-.828-.887Z" transform="translate(-39.062 -1.609)" fill="#fff"/>
      <path id="パス_179" data-name="パス 179" d="M396.093,20.7a10.405,10.405,0,0,1,3.135,7.6,11.084,11.084,0,0,1-5.944,9.818,11.358,11.358,0,0,1-3.519,1.33c-1.035,0-2.6-2.72-2.6-3.548,0-.266.267-.384,1.124-.591,3.43-.887,6.24-3.045,6.24-6.831,0-4.643-3.549-6.476-4.437-6.476-.5,0-.561.532-.59,1.064-.325,4.111-1.508,9.137-4.228,12.39a5.731,5.731,0,0,1-4.288,2.455,5.269,5.269,0,0,1-4.494-3.046,10.019,10.019,0,0,1-.976-4.436,12.528,12.528,0,0,1,12.6-12.743,10.959,10.959,0,0,1,7.983,3.016m-16.174,9.669c0,.71.177,2.868,1.212,2.868.709,0,1.714-1.952,2.01-2.573a26.7,26.7,0,0,0,1.864-7.57c0-.237-.118-.444-.384-.444-.858,0-4.7,2.721-4.7,7.718" transform="translate(-43.683 -2.057)" fill="#fff"/>
      <path id="パス_180" data-name="パス 180" d="M425.01,17.856c0,.443.355.473.8.473h3.636c1.036,0,2.07-.059,3.105-.059s1.6.325,1.6,1.449c0,1.006-.088,2.01-.088,3.016V36.75c0,1.153.088,2.307.088,3.49,0,.71-.3.8-1.331.8h-2.129c-.857,0-1.183-.088-1.183-.828v-.3a.82.82,0,0,0-.827-.8h-9.344a.82.82,0,0,0-.828.8v.326c0,.74-.355.8-1.242.8h-2.011c-1.093,0-1.389-.088-1.389-.8,0-1.182.088-2.336.088-3.49V22.734c0-1.006-.059-2.01-.059-3.016,0-1.124.5-1.449,1.568-1.449,1.035,0,2.07.059,3.1.059h.355a1.612,1.612,0,0,0,1.6-1.094,23.492,23.492,0,0,0,.887-2.6c.118-.384.236-.532.532-.532.355,0,3.49.65,4.081.8.532.118.8.177.8.5,0,.3-.177.414-.473.473-.325.06-.444.089-.591.385-.03.058-.089.148-.148.266a7.422,7.422,0,0,0-.591,1.331m-6.594,5.618a.684.684,0,0,0,.71.71h9.758a.7.7,0,0,0,.71-.71V23.03a.7.7,0,0,0-.71-.71h-9.758a.7.7,0,0,0-.71.71Zm0,5.44a.847.847,0,0,0,.828.829h9.522a.847.847,0,0,0,.828-.829V28.53a.826.826,0,0,0-.828-.828h-9.522a.792.792,0,0,0-.828.828Zm0,5.53a.846.846,0,0,0,.828.828h9.522a.846.846,0,0,0,.828-.828v-.384a.846.846,0,0,0-.828-.828h-9.522a.792.792,0,0,0-.828.828Z" transform="translate(-48.144 -1.64)" fill="#fff"/>
      <path id="パス_181" data-name="パス 181" d="M449.2,27.236c.71,0,.917-.266,1.449-1.212a2.072,2.072,0,0,0,.325-.8c0-.532-1.922-2.129-2.927-2.956a.62.62,0,0,1-.208-.414c0-.8,1.006-3.253,1.626-3.253a.443.443,0,0,1,.267.118.782.782,0,0,0,.236.089c.325,0,1.36-3.52,1.508-4.111.088-.325.207-.532.414-.532.148,0,2.1.769,2.749,1.035.533.207.711.354.711.561,0,.237-.178.267-.414.326a.653.653,0,0,0-.384.3c-.444,1.152-1.331,3.223-1.893,4.317a1.094,1.094,0,0,0-.118.414c0,.237.178.562.385.562.148,0,.207-.118.354-.414.474-.976,1.035-2.07,1.39-2.958.178-.444.237-.62.532-.62a26.481,26.481,0,0,1,2.839,1.124c.65.266.916.444.916.769,0,.3-.237.384-.414.414a.749.749,0,0,0-.62.444c-.059.088-.237.384-.444.739-.592,1.006-1.568,2.6-1.568,2.662,0,.118.118.177.237.177a5.385,5.385,0,0,0,.65-.177,4.269,4.269,0,0,1,.976-.236c.325,0,.444.3.562.62a.288.288,0,0,0,.237.207c.325,0,1.952-2.129,2.217-2.483a26.27,26.27,0,0,0,4.022-7.363c.088-.267.118-.414.414-.414a27.883,27.883,0,0,1,3.194.71c.916.236,1.006.384,1.006.591,0,.237-.266.355-.355.384a.2.2,0,0,0-.118.148.777.777,0,0,0,.089.238l.266.531a32,32,0,0,0,5.412,7.393c.236.237.591.562.591.916,0,.8-2.159,2.366-2.928,2.366-.266,0-.384-.177-.532-.384-.089-.118-.208-.237-.326-.237-.236,0-.265.207-.3.414-.059.474-.444.562-.857.562-.858,0-1.715-.088-2.543-.088h-1.8c-.857,0-1.685.088-2.542.088-.68,0-.858-.207-.887-.769-.03-.148-.059-.325-.266-.325s-.355.178-.562.444c-.148.177-.354.414-.621.414a3.167,3.167,0,0,1-1.39-.8.51.51,0,0,0-.325-.178c-.207,0-.266.148-.266.325,0,.237.533,2.4.533,3.075,0,.473-.3.591-1.065.858a6.644,6.644,0,0,1-1.508.384c-.325,0-.384-.384-.443-.769-.03-.148-.089-.265-.267-.265-.207,0-.355.236-.355.444v4.968c0,1.537.06,3.074.06,4.612,0,.8-.3.858-1.242.858h-1.6c-1.094,0-1.183-.237-1.183-.887,0-1.479.089-3.046.089-4.583V33.3c0-.088-.03-.236-.148-.236-.355,0-.384.384-.5,1.862q-.044.8-.178,2.13c-.325,3.075-.591,3.1-.976,3.1a11.04,11.04,0,0,1-2.07-.62.62.62,0,0,1-.325-.473c0-.06.3-1.952.384-2.543.148-1.036.384-3.194.414-4.2.029-.473.148-.533.325-.533a18.447,18.447,0,0,1,1.893.325c.265.06.887.179.946.179.177,0,.236-.118.236-.3v-.266c0-.474-.118-.858-.68-.858-.267,0-1.036.089-1.361.118-.207.029-.207.088-.266.207a.536.536,0,0,1-.473.325c-.414,0-.474-.325-.74-1.656-.118-.5-.237-1.152-.444-1.981a.879.879,0,0,1-.059-.3c0-.384.532-.355.8-.355Zm5.589-1.774a4.773,4.773,0,0,0-.621,1.094c0,.179.178.237.3.237.414,0,1.242-.029,1.242-.591a6.311,6.311,0,0,0-.237-.8c-.088-.267-.148-.385-.266-.385s-.207.118-.414.444m4.2,6.653a14.677,14.677,0,0,1,.444,1.774,19.844,19.844,0,0,1,.474,3.283c0,.916-2.1,1.093-2.425,1.093-.474,0-.562-.3-.562-.739a31.489,31.489,0,0,0-.444-4.288c-.088-.444-.148-.828-.148-.887,0-.532,1.951-.857,2.04-.857.236,0,.414.059.62.62m1.449.385c0-.68-.059-1.361-.059-2.041,0-1.123.917-1.182,1.774-1.182.887,0,1.774.059,2.632.059h4.2c.887,0,1.744-.059,2.632-.059s1.8.059,1.8,1.182c0,.651-.059,1.331-.059,2.041v5.174c0,1.006.089,2.247.089,2.751,0,.561-.326.62-1.124.62h-1.863c-.769,0-1.094-.059-1.094-.62,0-.06.029-.208.029-.267a.7.7,0,0,0-.71-.68h-3.607a.736.736,0,0,0-.71.68c0,.089.029.207.029.267,0,.561-.237.65-1.36.65H461.8c-1.124,0-1.45-.059-1.45-.65,0-.621.089-1.8.089-2.751Zm3.874,2.542a.808.808,0,0,0,.828.828h3.489a.808.808,0,0,0,.828-.828V34.1a.826.826,0,0,0-.828-.828h-3.489a.846.846,0,0,0-.828.828ZM468.241,24.1c.474,0,.917-.029.917-.354a.8.8,0,0,0-.178-.355,30.655,30.655,0,0,1-1.627-2.661c-.118-.208-.3-.444-.562-.444-.325,0-.591.444-1.064,1.3-.237.414-.621,1.064-1.094,1.774a1.035,1.035,0,0,0-.148.384c0,.325.385.354.976.354Z" transform="translate(-52.097 -1.648)" fill="#fff"/>
      <path id="パス_182" data-name="パス 182" d="M500.278,17.856c0,.443.355.473.8.473h3.636c1.036,0,2.07-.059,3.105-.059s1.6.325,1.6,1.449c0,1.006-.088,2.01-.088,3.016V36.75c0,1.153.088,2.307.088,3.49,0,.71-.3.8-1.331.8h-2.129c-.857,0-1.183-.088-1.183-.828v-.3a.819.819,0,0,0-.827-.8H494.6a.82.82,0,0,0-.828.8v.326c0,.74-.355.8-1.242.8h-2.011c-1.093,0-1.389-.088-1.389-.8,0-1.182.088-2.336.088-3.49V22.734c0-1.006-.059-2.01-.059-3.016,0-1.124.5-1.449,1.568-1.449,1.035,0,2.07.059,3.1.059h.355a1.612,1.612,0,0,0,1.6-1.094,23.314,23.314,0,0,0,.887-2.6c.118-.384.236-.532.532-.532.355,0,3.49.65,4.081.8.532.118.8.177.8.5,0,.3-.177.414-.473.473-.325.06-.444.089-.591.385-.03.058-.089.148-.148.266a7.422,7.422,0,0,0-.591,1.331m-6.594,5.618a.684.684,0,0,0,.71.71h9.758a.7.7,0,0,0,.71-.71V23.03a.7.7,0,0,0-.71-.71h-9.758a.7.7,0,0,0-.71.71Zm0,5.44a.847.847,0,0,0,.828.829h9.522a.847.847,0,0,0,.828-.829V28.53a.826.826,0,0,0-.828-.828h-9.522a.792.792,0,0,0-.828.828Zm0,5.53a.846.846,0,0,0,.828.828h9.522a.846.846,0,0,0,.828-.828v-.384a.846.846,0,0,0-.828-.828h-9.522a.792.792,0,0,0-.828.828Z" transform="translate(-56.9 -1.64)" fill="#fff"/>
      <path id="パス_183" data-name="パス 183" d="M531.244,26.121c-.769,0-.74,0-1,.384-.267.354-.533.354-1.893.354h-.887c-1.212,0-1.627-.058-1.627-.739,0-.266.089-1.39.089-2.306V18.256c0-.65-.059-1.3-.059-1.952,0-1.182,1.065-1.3,2.218-1.3.946,0,1.863.059,2.779.059h10.2c.916,0,1.863-.059,2.779-.059,1.3,0,2.218.178,2.218,1.331,0,.65-.059,1.272-.059,1.922v5.559c0,.857.088,2.04.088,2.276,0,.71-.354.769-1.6.769h-.887c-1.361,0-1.745,0-1.923-.444-.088-.236-.236-.3-.68-.3h-1.981a.846.846,0,0,0-.828.828v1.123a.846.846,0,0,0,.828.828h3.43c1.153,0,2.276-.088,3.43-.088.71,0,.769.3.769,1.153v1.656c0,.887-.059,1.153-.769,1.153-1.153,0-2.276-.059-3.43-.059h-3.43a.827.827,0,0,0-.828.828v1.745a.884.884,0,0,0,1.006.976h2.691c1.478,0,4.642-.059,6.032-.238a6.333,6.333,0,0,1,.71-.058c.621,0,.68.65.68,1.094a6.752,6.752,0,0,1-.384,2.306,1.473,1.473,0,0,1-1.686,1.124h-.236c-.474,0-.946.029-1.42.029H542.3c-3.134,0-8.457-.088-10.556-1.182a9.583,9.583,0,0,1-2.306-1.657.886.886,0,0,0-.532-.294c-.3,0-.5.413-.621.649a13.056,13.056,0,0,1-1.212,2.07,1.408,1.408,0,0,1-1.035.709c-.74,0-3.43-1.123-3.43-1.921a2.145,2.145,0,0,1,.5-1.006c.088-.118.178-.237.237-.325a20.668,20.668,0,0,0,3.49-8.783c.088-.62.088-.975.62-.975a25.944,25.944,0,0,1,3.9.856c.355.089.857.267.857.622,0,.177-.236.3-.414.354-.474.148-.532.325-.74,1.123-.088.355-.177.622-.3,1.066a2.711,2.711,0,0,0-.148.827c0,1.6,2.217,2.928,2.632,2.928s.414-.355.414-.739v-7.9a.879.879,0,0,0-.887-.828ZM530.21,21.39a.792.792,0,0,0,.828.828h9.847a.827.827,0,0,0,.828-.828V19.882a.827.827,0,0,0-.828-.828h-9.847a.826.826,0,0,0-.828.828Z" transform="translate(-60.795 -1.745)" fill="#fff"/>
      <path id="パス_184" data-name="パス 184" d="M574.272,16.238c0,.178-.207.3-.355.354-.473.179-.591.326-.976,1.006a1.993,1.993,0,0,0-.3.681.287.287,0,0,0,.324.3,21.389,21.389,0,0,0,3.43-.828,2.243,2.243,0,0,1,.74-.178c.5,0,.65.473.74.887a9.488,9.488,0,0,1,.236,1.6c0,.5-.946.621-1.567.739-1.864.385-3.726.71-5.589.916a1.044,1.044,0,0,0-.887.475,9.519,9.519,0,0,0-1.006,1.714.228.228,0,0,0,.237.207,1.131,1.131,0,0,0,.532-.178,8.184,8.184,0,0,1,3.224-.769,3.015,3.015,0,0,1,3.371,2.662c.059.267.148.5.444.5a26.4,26.4,0,0,0,3.46-1.685,2.422,2.422,0,0,1,.769-.3c.562,0,1.271,2.276,1.271,2.779,0,.355-.324.474-.886.651-.119.058-.266.088-.414.148-1.182.444-2.336.946-3.489,1.448-.532.208-.77.385-.77.976v.384c0,.918.03,1.8.03,2.722,0,1.064-.148,1.181-1.272,1.181-1.272,0-1.8-.058-1.8-.827,0-.65.059-1.3.059-1.922,0-.267-.089-.5-.384-.5-.148,0-3.194,1.3-3.194,3.134,0,1.981,2.868,2.159,4.288,2.159a21.634,21.634,0,0,0,5.5-.74,3.692,3.692,0,0,1,.591-.058c.384,0,.592.325.592,2.01,0,.887-.03,1.124-.68,1.272a39.245,39.245,0,0,1-5.678.384,10.952,10.952,0,0,1-4.672-.769,4.492,4.492,0,0,1-2.957-4.228c0-2.662,2.159-4.111,4.2-5.323.591-.354,1.212-.68,1.833-.976.3-.148.532-.325.532-.68a4.037,4.037,0,0,0-.148-.827,1.23,1.23,0,0,0-1.3-1.006,9.935,9.935,0,0,0-5.53,2.6,19.357,19.357,0,0,0-2.484,3.46.492.492,0,0,1-.414.3c-.532,0-2.513-1.183-2.513-1.716,0-.236.236-.473.384-.65.68-.739,4.967-6.683,4.967-7.244,0-.266-.236-.355-.65-.355-.473,0-1.153.089-2.07.089-.65,0-.769-.148-.769-1.656,0-1.183.118-1.36.857-1.36.5,0,1.272.058,2.13.058h.857c.769,0,1.567-.029,1.834-.384a16.305,16.305,0,0,0,1.6-3.815c.059-.325.118-.621.414-.621.266,0,3.312,1.36,3.312,1.8" transform="translate(-65.308 -1.679)" fill="#fff"/>
      <path id="パス_185" data-name="パス 185" d="M605.876,37.209a2.179,2.179,0,0,1-2.307,2.277,1.918,1.918,0,0,1-2.039-1.952,2.211,2.211,0,0,1,2.276-2.366,1.981,1.981,0,0,1,2.07,2.04m-2.662-4.347c-.739,0-.887-.148-.916-.887l-.207-7.481c-.059-1.774-.267-5.736-.267-6.328,0-.5.178-.62.828-.62h2.07c.65,0,.828.118.828.62,0,.592-.208,4.554-.267,6.506l-.177,7.3c-.03.74-.178.887-.917.887Z" transform="translate(-69.975 -2.041)" fill="#fff"/>
      <path id="パス_186" data-name="パス 186" d="M212.925,58.263a12.044,12.044,0,0,1-7.823-2.749,9.877,9.877,0,0,0-12.576,0,12.5,12.5,0,0,1-15.645,0,9.871,9.871,0,0,0-12.572,0,12.5,12.5,0,0,1-15.642,0,9.871,9.871,0,0,0-12.572,0,12.5,12.5,0,0,1-15.642,0,9.871,9.871,0,0,0-12.571,0,12.5,12.5,0,0,1-15.641,0,9.871,9.871,0,0,0-12.571,0,12.494,12.494,0,0,1-15.64,0,9.869,9.869,0,0,0-12.568,0,12.494,12.494,0,0,1-15.639,0,9.428,9.428,0,0,0-6.286-2.26,9.429,9.429,0,0,0-6.284,2.26,12.031,12.031,0,0,1-7.82,2.75,12.038,12.038,0,0,1-7.82-2.749,9.428,9.428,0,0,0-6.286-2.26,1.326,1.326,0,1,1,0-2.651,12.041,12.041,0,0,1,7.821,2.749,9.428,9.428,0,0,0,6.286,2.26,9.429,9.429,0,0,0,6.285-2.26,12.028,12.028,0,0,1,7.819-2.75,12.033,12.033,0,0,1,7.82,2.75,9.87,9.87,0,0,0,12.569,0,12.493,12.493,0,0,1,15.638,0,9.868,9.868,0,0,0,12.569,0,12.5,12.5,0,0,1,15.642,0,9.872,9.872,0,0,0,12.571,0,12.5,12.5,0,0,1,15.641,0,9.869,9.869,0,0,0,12.571,0,12.5,12.5,0,0,1,15.644,0,9.871,9.871,0,0,0,12.571,0,12.5,12.5,0,0,1,15.642,0,9.875,9.875,0,0,0,12.576,0,12.5,12.5,0,0,1,15.645,0,9.879,9.879,0,0,0,12.578,0,12.044,12.044,0,0,1,7.823-2.749,1.326,1.326,0,0,1,0,2.651,9.436,9.436,0,0,0-6.289,2.26,12.044,12.044,0,0,1-7.823,2.749" transform="translate(0 -5.886)" fill="#fff"/>
      <path id="パス_187" data-name="パス 187" d="M315.779,2.916A2.916,2.916,0,1,1,312.863,0a2.916,2.916,0,0,1,2.916,2.916" transform="translate(-36.056 0)" fill="#fff"/>
      <path id="パス_188" data-name="パス 188" d="M353.291,2.916A2.916,2.916,0,1,1,350.375,0a2.916,2.916,0,0,1,2.916,2.916" transform="translate(-40.42 0)" fill="#fff"/>
      <path id="パス_189" data-name="パス 189" d="M390.8,2.916A2.916,2.916,0,1,1,387.887,0,2.916,2.916,0,0,1,390.8,2.916" transform="translate(-44.783 0)" fill="#fff"/>
      <path id="パス_190" data-name="パス 190" d="M428.315,2.916A2.916,2.916,0,1,1,425.4,0a2.916,2.916,0,0,1,2.916,2.916" transform="translate(-49.147 0)" fill="#fff"/>
      <path id="パス_191" data-name="パス 191" d="M465.827,2.916A2.916,2.916,0,1,1,462.911,0a2.916,2.916,0,0,1,2.916,2.916" transform="translate(-53.511 0)" fill="#fff"/>
      <path id="パス_192" data-name="パス 192" d="M503.338,2.916A2.916,2.916,0,1,1,500.422,0a2.916,2.916,0,0,1,2.916,2.916" transform="translate(-57.874 0)" fill="#fff"/>
      <path id="パス_193" data-name="パス 193" d="M540.85,2.916A2.916,2.916,0,1,1,537.934,0a2.916,2.916,0,0,1,2.916,2.916" transform="translate(-62.238 0)" fill="#fff"/>
    </g>
  </g>
</svg>
