<svg xmlns="http://www.w3.org/2000/svg" xmlns:xlink="http://www.w3.org/1999/xlink" width="42.616" height="35.811" viewBox="0 0 42.616 35.811">
  <defs>
    <clipPath id="clip-path">
      <rect id="長方形_229" data-name="長方形 229" width="42.616" height="35.811" fill="none"/>
    </clipPath>
  </defs>
  <g id="グループ_158" data-name="グループ 158" transform="translate(0 0)">
    <g id="グループ_159" data-name="グループ 159" transform="translate(0 0)" clip-path="url(#clip-path)">
      <path id="パス_827" data-name="パス 827" d="M7.625,24.878C3.584,24.878,0,22.489,0,17.464V7.448C0,2.283,3.584,0,7.625,0s7.626,2.283,7.626,7.414v10.05c0,5.025-3.586,7.414-7.626,7.414m0-21.33c-2.213,0-3.584,1.511-3.584,4.111v9.559c0,2.6,1.371,4.111,3.584,4.111,2.178,0,3.549-1.511,3.549-4.111V7.659c0-2.6-1.371-4.111-3.549-4.111" transform="translate(0 0)" fill="#fff226"/>
      <path id="パス_828" data-name="パス 828" d="M17.725,10.295h1.687c2.529,0,3.9-1.335,3.9-3.618a3.229,3.229,0,0,0-3.443-3.2,3.283,3.283,0,0,0-3.443,2.986H12.7C12.806,2.565,16.108,0,20.009,0c4.252,0,7.344,2.917,7.344,6.571a5.932,5.932,0,0,1-3.443,5.411A6.066,6.066,0,0,1,27.7,17.85c0,3.83-2.741,7.028-7.414,7.028-4.919,0-7.7-2.811-7.905-6.643h3.724c.282,1.758,1.511,3.094,4.006,3.094a3.442,3.442,0,0,0,3.548-3.584c0-2.459-1.44-3.936-4.25-3.936H17.725Z" transform="translate(4.411 0)" fill="#fff226"/>
      <path id="パス_829" data-name="パス 829" d="M1.5,25.71v2.264H.462v-6.2H2.574c1.427,0,2.281.682,2.281,1.957,0,1.259-.845,1.976-2.281,1.976Zm.96-.9c.952,0,1.348-.368,1.348-1.078,0-.673-.4-1.05-1.348-1.05H1.5v2.128Z" transform="translate(0.165 7.757)" fill="#fff226"/>
      <path id="パス_830" data-name="パス 830" d="M8.037,28.076c-1.382,0-2.316-.835-2.316-2.784V24.5c0-1.949.934-2.784,2.316-2.784s2.327.835,2.327,2.784v.791c0,1.949-.934,2.784-2.327,2.784M6.763,25.292c0,1.337.449,1.877,1.275,1.877s1.286-.54,1.286-1.877V24.5c0-1.337-.458-1.877-1.286-1.877s-1.275.54-1.275,1.877Z" transform="translate(2.038 7.735)" fill="#fff226"/>
      <rect id="長方形_228" data-name="長方形 228" width="1.043" height="6.197" transform="translate(15.533 29.533)" fill="#fff226"/>
      <path id="パス_831" data-name="パス 831" d="M19.127,21.776v6.2H18.2l-2.524-4.211v4.211H14.672v-6.2h.9l2.551,4.267V21.776Z" transform="translate(5.226 7.757)" fill="#fff226"/>
      <path id="パス_832" data-name="パス 832" d="M24.634,21.776v.907H22.856v5.289H21.814V22.684H20.027v-.907Z" transform="translate(7.134 7.757)" fill="#fff226"/>
      <path id="線_39" data-name="線 39" d="M.5,35.417h-1V0h1Z" transform="translate(41.938 0.312)" fill="#fff226"/>
    </g>
  </g>
</svg>
