<svg xmlns="http://www.w3.org/2000/svg" xmlns:xlink="http://www.w3.org/1999/xlink" width="42.618" height="35.811" viewBox="0 0 42.618 35.811">
  <defs>
    <clipPath id="clip-path">
      <rect id="長方形_225" data-name="長方形 225" width="42.618" height="35.811" fill="none"/>
    </clipPath>
  </defs>
  <g id="グループ_156" data-name="グループ 156" transform="translate(0 0)">
    <g id="グループ_157" data-name="グループ 157" transform="translate(0 0)" clip-path="url(#clip-path)">
      <path id="パス_821" data-name="パス 821" d="M7.625,24.879C3.585,24.879,0,22.49,0,17.465V7.449C0,2.283,3.585,0,7.625,0s7.626,2.283,7.626,7.415v10.05c0,5.025-3.586,7.415-7.626,7.415m0-21.331c-2.213,0-3.585,1.511-3.585,4.111v9.559c0,2.6,1.371,4.111,3.585,4.111,2.178,0,3.549-1.511,3.549-4.111V7.659c0-2.6-1.371-4.111-3.549-4.111" transform="translate(0 0)" fill="#fff226"/>
      <path id="パス_822" data-name="パス 822" d="M27.058,24.562H12.405V21.68l8.327-9.768c1.583-1.828,2.46-3.41,2.46-5.1a3.232,3.232,0,0,0-3.444-3.339,3.252,3.252,0,0,0-3.444,3.339H12.58C12.58,2.706,15.884,0,19.89,0c4.146,0,7.343,2.81,7.343,6.887,0,3.057-2.106,5.445-3.654,7.308L17.85,21.048h9.208Z" transform="translate(4.419 0)" fill="#fff226"/>
      <path id="パス_823" data-name="パス 823" d="M1.5,25.709v2.264H.462v-6.2H2.574c1.427,0,2.281.682,2.281,1.957,0,1.259-.845,1.976-2.281,1.976Zm.96-.9c.952,0,1.348-.368,1.348-1.078,0-.673-.4-1.05-1.348-1.05H1.5v2.128Z" transform="translate(0.165 7.758)" fill="#fff226"/>
      <path id="パス_824" data-name="パス 824" d="M8.037,28.076c-1.382,0-2.316-.835-2.316-2.784V24.5c0-1.949.934-2.784,2.316-2.784s2.327.835,2.327,2.784v.791c0,1.949-.934,2.784-2.327,2.784M6.763,25.291c0,1.337.449,1.877,1.275,1.877s1.286-.54,1.286-1.877V24.5c0-1.337-.458-1.877-1.286-1.877s-1.275.54-1.275,1.877Z" transform="translate(2.038 7.736)" fill="#fff226"/>
      <rect id="長方形_224" data-name="長方形 224" width="1.043" height="6.197" transform="translate(15.533 29.533)" fill="#fff226"/>
      <path id="パス_825" data-name="パス 825" d="M19.127,21.775v6.2H18.2l-2.524-4.211v4.211H14.672v-6.2h.9l2.551,4.267V21.775Z" transform="translate(5.227 7.757)" fill="#fff226"/>
      <path id="パス_826" data-name="パス 826" d="M24.634,21.775v.907H22.856v5.289H21.814V22.683H20.027v-.907Z" transform="translate(7.135 7.757)" fill="#fff226"/>
      <path id="線_38" data-name="線 38" d="M.5,35.419h-1V0h1Z" transform="translate(41.94 0.311)" fill="#fff226"/>
    </g>
  </g>
</svg>
