<svg id="グループ_36" data-name="グループ 36" xmlns="http://www.w3.org/2000/svg" xmlns:xlink="http://www.w3.org/1999/xlink" width="131.813" height="131.813" viewBox="0 0 131.813 131.813">
  <defs>
    <clipPath id="clip-path">
      <rect id="長方形_24" data-name="長方形 24" width="131.813" height="131.813" fill="#fff"/>
    </clipPath>
  </defs>
  <g id="グループ_35" data-name="グループ 35" clip-path="url(#clip-path)">
    <path id="パス_194" data-name="パス 194" d="M47.472,46.088c0,.773.051,1.547.051,2.3,0,.447-.206.481-.756.481h-1c-.55,0-.756-.034-.756-.464,0-.773.052-1.547.052-2.32V44.232c0-.137-.034-.309-.206-.309a.683.683,0,0,0-.343.188,1.046,1.046,0,0,1-.6.292c-.464,0-1.306-1.271-1.306-1.6,0-.189.206-.292.361-.4a13.026,13.026,0,0,0,2.715-2.337,6.265,6.265,0,0,0,1.186-1.856c0-.12-.052-.138-.6-.138H44.843c-.43,0-.859.052-1.186.052-.481,0-.532-.172-.532-.739v-.859c0-.515.051-.688.532-.688.309,0,.636.034.945.034a.483.483,0,0,0,.5-.515v-.619c0-.292-.052-.739-.052-1.03V33.56c0-.206.154-.274.327-.274.257,0,1.821.137,2.148.172.138.017.361.034.361.241,0,.12-.068.172-.206.274-.155.121-.172.412-.172,1.152v.241a.488.488,0,0,0,.481.515c.154,0,.292-.017.447-.017a1.46,1.46,0,0,1,1.22.568.947.947,0,0,1,.378.636c0,.67-1.443,2.955-1.908,3.523a.328.328,0,0,0-.12.241.282.282,0,0,0,.275.274c.137,0,.206-.1.292-.223a9.724,9.724,0,0,0,.619-.859c.069-.1.121-.172.241-.172.172,0,.327.121.6.343a1.672,1.672,0,0,0,.241.19c.189.137.756.532.756.756,0,.172-.223.206-.361.206-.189,0-.223.034-.481.309-.086.086-.172.172-.275.292a.575.575,0,0,0-.189.343.46.46,0,0,0,.223.344c.137.1.326.223.326.412,0,.43-.825,1.443-1.272,1.443-.206,0-.343-.154-.6-.412-.206-.206-.378-.378-.584-.568a.19.19,0,0,0-.172-.068c-.172,0-.172.154-.172.275ZM55.05,34.2c.464,0,.877-.017,1.221-.017.979,0,1.563.1,1.632.774.034.309.051.808.051,1.409,0,1.908-.137,4.812-.189,5.516a41.228,41.228,0,0,1-.532,4.64,3.913,3.913,0,0,1-.516,1.374,3.375,3.375,0,0,1-2.767,1c-.979,0-1.426-.069-1.426-1.719,0-.653.052-.877.378-.877a4.673,4.673,0,0,1,.688.086,3.347,3.347,0,0,0,.43.034c.739,0,.842-.4.979-1.341a57.557,57.557,0,0,0,.481-7.768c0-.808-.017-.841-1-.841h-.275c-.481,0-.5.481-.515,1.323-.086,3.729-.774,7.87-3.42,10.689-.121.12-.258.274-.412.274-.567,0-1.719-.773-1.719-1.2,0-.154.155-.309.275-.447a10.936,10.936,0,0,0,2.612-5.568,32.133,32.133,0,0,0,.344-4.245V37a.492.492,0,0,0-.5-.516c-.154,0-.309.017-.447.017-.5,0-.567-.172-.567-.688V34.78c0-.481.1-.619.567-.619.619,0,1.22.034,1.821.034Z" transform="translate(-13.224 -10.33)" fill="#fff"/>
    <path id="パス_195" data-name="パス 195" d="M78.341,42.389c0,.378.326.412.636.43.343.017.361.223.361.652v.7c0,.515-.068.636-.5.636-.327,0-.636-.034-.946-.034-.137,0-.275.052-.275.206a.528.528,0,0,0,.086.189,11.623,11.623,0,0,0,.911,1.2c.1.12.154.137.189.137.1,0,.154-.1.24-.31a17.931,17.931,0,0,0,.739-5.911V36.684c0-.67-.034-1.341-.034-2.028,0-.6.258-.808.842-.808.516,0,1.048.034,1.564.034h1.357c.515,0,1.014-.034,1.53-.034.6,0,.877.189.877.808,0,.687-.034,1.357-.034,2.028V45.4c0,.447.034.894.034,1.341,0,1.873-.688,2.251-2.578,2.251-.808,0-1.083-.172-1.254-.893a7.569,7.569,0,0,1-.154-1.255c0-.24.086-.5.378-.5.206,0,.55.052.79.052.516,0,.516-.344.516-.67V43.85a.47.47,0,0,0-.481-.481h-.79c-.344,0-.464.241-.5.532a14.742,14.742,0,0,1-.464,2.492A12.626,12.626,0,0,1,80.4,48.8a.315.315,0,0,1-.31.189c-.43,0-1.839-.567-1.839-1.048,0-.154.206-.412.206-.516,0-.017,0-.051-.052-.051a.281.281,0,0,0-.172.068,2.219,2.219,0,0,1-.979.464c-.378,0-.842-.756-1.031-1.048a5.983,5.983,0,0,1-.67-1.254c0-.24.31-.464.567-.584.069-.034.121-.069.121-.12,0-.086-.121-.121-.189-.121h-1.89c-.121,0-.292,0-.292.1,0,.034.052.086.154.137.327.172.67.344.86.447a.322.322,0,0,1,.188.241c0,.12-.1.189-.223.206-.172.034-.223.052-.344.292a19.192,19.192,0,0,1-1.443,2.423c-.154.206-.241.361-.43.361-.4,0-1.735-.67-1.735-1.117,0-.086.051-.154.154-.292a10.176,10.176,0,0,0,1.5-2.526c0-.189-.19-.275-.344-.275-.172,0-.4.034-.636.034-.463,0-.515-.137-.515-.636V43.42c0-.464.052-.619.5-.619.051,0,.12.017.188.017a.478.478,0,0,0,.447-.5V37.526c0-.292-.241-.378-.5-.412-.31-.034-.361-.206-.361-.619v-.842c0-.532.069-.584.481-.619a.4.4,0,0,0,.378-.412c0-.223-.051-.722-.051-.946,0-.206.12-.24.309-.24.206,0,1.409.086,1.684.12.4.052.688.052.688.292,0,.1-.069.154-.172.257a.585.585,0,0,0-.172.464.5.5,0,0,0,.481.5h.636a.507.507,0,0,0,.481-.5c0-.154-.052-.636-.052-.894,0-.206.12-.24.309-.24.207,0,1.53.1,1.788.137.412.052.584.068.584.275,0,.1-.086.154-.172.257a.73.73,0,0,0-.172.568c0,.274.189.343.43.361.309.017.361.223.361.619v.808c0,.55-.069.619-.481.653a.325.325,0,0,0-.326.326Zm-3.592-5.31a.272.272,0,0,0-.275.275v.154a.283.283,0,0,0,.275.275H75.8a.283.283,0,0,0,.275-.275v-.154a.262.262,0,0,0-.275-.275Zm0,2.526a.272.272,0,0,0-.275.275v.154a.283.283,0,0,0,.275.274H75.8a.283.283,0,0,0,.275-.274V39.88A.262.262,0,0,0,75.8,39.6Zm1,3.231a.316.316,0,0,0,.327-.327v-.052a.33.33,0,0,0-.327-.343H74.8a.331.331,0,0,0-.327.343v.052a.317.317,0,0,0,.327.327Zm6.771-3.059c-.412,0-.5.31-.5.619v.258a.462.462,0,0,0,.464.464h.653a.47.47,0,0,0,.481-.481v-.378a.46.46,0,0,0-.481-.481Zm.619-2.286a.481.481,0,0,0,.481-.481v-.378a.48.48,0,0,0-.481-.481h-.619a.491.491,0,0,0-.481.481v.378a.46.46,0,0,0,.481.481Z" transform="translate(-22.004 -10.377)" fill="#fff"/>
    <path id="パス_196" data-name="パス 196" d="M106.46,34.207a.41.41,0,0,0,.412-.361c0-.086-.034-.19-.034-.275,0-.223.155-.258.344-.258.24,0,1.512.086,1.8.121.327.034.55.034.55.189s-.154.258-.274.343a.09.09,0,0,0-.034.069.194.194,0,0,0,.206.172h.894c.584,0,1.168-.034,1.752-.034.361,0,.808.034.808.584,0,.206-.034.533-.034.911v.189c0,.378.034.722.034.928,0,.5-.378.567-.79.567-.584,0-1.168-.017-1.77-.017h-.946a.191.191,0,0,0-.189.189v.1a.191.191,0,0,0,.189.189h2.784c.378,0,.773-.017,1.151-.017.258,0,.516.017.516.343a6.167,6.167,0,0,1-.6,2.286,1.119,1.119,0,0,1-.79.55c-.67.172-.7.326-.7,1v2.852c0,.464.034.859.034,1.117,0,.481-.4.619-.979.619h-.172c-.052,0-.154.017-.154.086,0,.154,1.151.241,1.34.258.585.052,1.152.1,1.736.121.258,0,.31.017.31.189a4.144,4.144,0,0,1-.206,1.117c-.12.4-.292.584-.722.584a16.246,16.246,0,0,1-2.715-.309,15.153,15.153,0,0,1-2.268-.515c-.137-.052-.292-.121-.292-.292a1.989,1.989,0,0,1,.378-.825.341.341,0,0,0,.1-.223c0-.154-.154-.223-.292-.223h-2.887c-.154,0-.292.069-.292.223,0,.034.017.086.1.223.172.274.463.7.619.962a.371.371,0,0,1,.068.206.164.164,0,0,1-.154.137.776.776,0,0,1-.275-.051.723.723,0,0,0-.206-.052.5.5,0,0,0-.154.034,25.189,25.189,0,0,1-4.777.687c-.361,0-.43-.137-.55-.481a4.663,4.663,0,0,1-.275-1.152c0-.274.172-.274.258-.274a20.883,20.883,0,0,0,2.9-.19c.481-.068.584-.12.584-.189,0-.034,0-.068-.154-.068s-.31.017-.464.017c-.447,0-1.066-.017-1.066-.619,0-.241.052-.636.052-1.117V41.974c0-.258-.052-.533-.379-.533a2.334,2.334,0,0,0-.6.121,1.853,1.853,0,0,1-.429.068c-.654,0-.98-1.117-.98-1.478,0-.292.12-.326.722-.412.223-.035,1.563-.258,1.563-.481,0-.086-.12-.1-.189-.1h-.481c-.5,0-1.048-.017-1.048-.326a1.9,1.9,0,0,1,.121-.447c.189-.619.361-1.289.481-1.873.069-.361.189-.447.55-.447h2.6a.236.236,0,0,0,.223-.258.213.213,0,0,0-.206-.223h-1.683c-.55,0-1.083.017-1.616.017-.309,0-.361-.086-.361-.412v-.55c0-.361.034-.464.361-.464.533,0,1.066.034,1.616.034H102.9a.4.4,0,0,0,.4-.412v-.206c0-.258.121-.326.361-.326.257,0,1.873.086,2.1.12.121.017.258.086.258.241,0,.137-.086.189-.172.241s-.154.086-.154.172a.182.182,0,0,0,.206.172Zm-3.712,3.609a.262.262,0,0,0,.241-.275c0-.121-.1-.206-.258-.206h-.378c-.326,0-.5.017-.5.258a.228.228,0,0,0,.223.223Zm3.678,2.457a.48.48,0,0,0,.481-.481v-.154a.47.47,0,0,0-.481-.481H105a1.066,1.066,0,0,0-.79.412c-.086.086-.223.206-.343.31-.1.086-.189.172-.189.241,0,.12.137.154.223.154Zm2.594,1.856a.19.19,0,0,0,.189-.189v-.1a.191.191,0,0,0-.189-.189h-5.155a.191.191,0,0,0-.189.189v.1c0,.1.068.172.189.189Zm-5.155,1.048a.2.2,0,0,0-.189.206v.086a.191.191,0,0,0,.189.19h5.155a.191.191,0,0,0,.189-.19v-.086a.185.185,0,0,0-.189-.206Zm0,1.5a.191.191,0,0,0-.189.189v.1a.19.19,0,0,0,.189.189h5.155a.19.19,0,0,0,.189-.189v-.1a.18.18,0,0,0-.189-.189Zm1.7-7.338a.234.234,0,0,0-.24.241.221.221,0,0,0,.223.241h1.168a.191.191,0,0,0,.189-.189v-.1a.18.18,0,0,0-.189-.189Zm1.117-1.272a.227.227,0,0,0,.223-.223v-.052a.214.214,0,0,0-.223-.206h-.894c-.137,0-.206.121-.206.258s.086.206.224.223Zm3.557,0a.227.227,0,0,0,.223-.223v-.052a.213.213,0,0,0-.223-.206h-.825a.214.214,0,0,0-.223.206v.052a.24.24,0,0,0,.223.223Zm-.567,3.093a.48.48,0,0,0-.481.481v.412a.231.231,0,0,0,.241.223c.206,0,.241-.121.241-.327,0-.343.154-.361.4-.361.206,0,.4.017.6.017a1.011,1.011,0,0,0,.447-.069.4.4,0,0,0,.223-.292c0-.086-.086-.086-.241-.086Z" transform="translate(-30.656 -10.323)" fill="#fff"/>
    <path id="パス_197" data-name="パス 197" d="M130.927,44.062c-.585,0-.739.292-.826.808a10.409,10.409,0,0,1-1.323,3.643c-.155.241-.378.585-.7.585-.378,0-1.736-.894-1.736-1.358a.694.694,0,0,1,.172-.378,9.461,9.461,0,0,0,.979-2.354,22.1,22.1,0,0,0,.447-5.344v-2.87c0-.619-.052-1.22-.052-1.839,0-.67.257-.945.946-.945.567,0,1.134.034,1.7.034h7.991c.55,0,1.117-.034,1.667-.034.688,0,.962.241.962.945,0,.6-.034,1.221-.034,1.839v8.712c0,.463.017.945.017,1.409a1.836,1.836,0,0,1-.876,1.839,4.2,4.2,0,0,1-2.011.378.911.911,0,0,1-1.048-.721,3.546,3.546,0,0,1-.206-1.2c0-.31.051-.55.412-.55a1.661,1.661,0,0,1,.292.017,3.3,3.3,0,0,0,.412.017c.5,0,.533-.154.533-.619v-1.53a.48.48,0,0,0-.481-.481H136.03a.48.48,0,0,0-.481.481v1.032c0,.91.052,1.8.052,2.7,0,.429-.206.463-.79.463h-1.066c-.6,0-.79-.034-.79-.481,0-.894.051-1.788.051-2.681V44.543a.46.46,0,0,0-.481-.481Zm.034-3.815c-.532,0-.6.275-.6.739v.379a.506.506,0,0,0,.568.481h1.6a.48.48,0,0,0,.481-.481v-.636a.47.47,0,0,0-.481-.481Zm1.564-2.268a.46.46,0,0,0,.481-.481v-.619a.47.47,0,0,0-.481-.481h-1.65a.48.48,0,0,0-.481.481V37.5a.48.48,0,0,0,.481.481Zm5.637,0a.47.47,0,0,0,.481-.481v-.619a.47.47,0,0,0-.481-.481H136.03a.47.47,0,0,0-.481.481V37.5a.46.46,0,0,0,.481.481Zm-2.131,2.268a.47.47,0,0,0-.481.481v.636a.48.48,0,0,0,.481.481h2.131a.48.48,0,0,0,.481-.481v-.636a.481.481,0,0,0-.481-.481Z" transform="translate(-39.209 -10.555)" fill="#fff"/>
    <path id="パス_198" data-name="パス 198" d="M108.378,94.978c0,21.844-12.574,34.6-27.9,34.6-14.685,0-26.342-11.105-26.342-32.032,0-18.816,9.637-34.052,27.719-34.052,14.41,0,26.525,10.555,26.525,31.482M64.873,97.823c0,14.319,6.333,21.936,15.6,21.936,9.821,0,17.163-9.454,17.163-24.414,0-14.41-6.7-21.57-15.787-21.57-11.657,0-16.98,11.106-16.98,24.047" transform="translate(-16.8 -19.706)" fill="#f58232"/>
    <path id="パス_199" data-name="パス 199" d="M144.716,113.159c0,1.123.09,2.246.09,3.346,0,.606-.27.651-1.078.651h-1.392c-.808,0-1.1-.045-1.1-.628,0-1.123.068-2.246.068-3.369V101.123c0-.809-.045-1.594-.045-2.4,0-.943.427-1.235,1.325-1.235.808,0,1.617.045,2.426.045h10.308c.786,0,1.572-.045,2.381-.045.7,0,1.37.112,1.37,1.235,0,.808-.068,1.594-.068,2.4v10.959c0,.629.045,1.235.045,1.864a2.882,2.882,0,0,1-.719,2.358,4.65,4.65,0,0,1-3.143.808c-.921,0-1.46-.067-1.774-.561a4.034,4.034,0,0,1-.381-1.8c0-.808.112-1.145.517-1.145.2,0,.741.067,1.123.067.9,0,.92-.314.92-1.1v-3.1a.643.643,0,0,0-.628-.629h-9.612a.668.668,0,0,0-.628.674Zm3.817-11.79a.642.642,0,0,0-.629-.629h-2.56a.642.642,0,0,0-.628.629v3.8a.643.643,0,0,0,.628.629h2.56a.628.628,0,0,0,.629-.629Zm3.3,3.8a.614.614,0,0,0,.629.629h2.492a.643.643,0,0,0,.628-.629v-3.8a.643.643,0,0,0-.628-.629h-2.492a.628.628,0,0,0-.629.629Z" transform="translate(-43.832 -30.254)" fill="#fff"/>
    <path id="パス_200" data-name="パス 200" d="M25.983,177.008a1.724,1.724,0,0,1-1.219-2.943l15.41-15.409a1.724,1.724,0,0,1,2.438,2.438L27.2,176.5a1.719,1.719,0,0,1-1.219.5" transform="translate(11.363 -59.154) rotate(9)" fill="#fff"/>
    <path id="パス_201" data-name="パス 201" d="M38.875,83.379l-9.552-6.3L27.505,82.1Z" transform="translate(-8.536 -23.921)" fill="#fff"/>
    <path id="パス_202" data-name="パス 202" d="M39.729,96.051,28.307,95.37l.933,5.255Z" transform="translate(-8.785 -29.598)" fill="#fff"/>
    <path id="パス_203" data-name="パス 203" d="M46.929,74.645l-9.205-6.8,4.084-3.436Z" transform="translate(-11.707 -19.99)" fill="#fff"/>
    <path id="パス_204" data-name="パス 204" d="M65.906,131.813a65.3,65.3,0,0,1-28.539-6.483,1.724,1.724,0,1,1,1.5-3.108,61.869,61.869,0,0,0,27.043,6.142,62.458,62.458,0,1,0-45.332-19.492,1.724,1.724,0,1,1-2.5,2.372,65.906,65.906,0,1,1,47.834,20.568" transform="translate(11.121 -9.499) rotate(9)" fill="#fff"/>
  </g>
</svg>
